<?xml version="1.0" encoding="UTF-8"?>
<svg width="30px" height="30px" viewBox="0 0 30 30" version="1.1" xmlns="http://www.w3.org/2000/svg" xmlns:xlink="http://www.w3.org/1999/xlink">
    <!-- Generator: Sketch 55.1 (78136) - https://sketchapp.com -->
    <title>编组</title>
    <desc>Created with Sketch.</desc>
    <g id="移动端1.0" stroke="none" stroke-width="1" fill="none" fill-rule="evenodd">
        <g id="首页" transform="translate(-30.000000, -345.000000)" fill="#FFFFFF" fill-rule="nonzero">
            <g id="编组" transform="translate(30.000000, 345.000000)">
                <path d="M15,0 C6.75,0 0,6.75 0,15 C0,23.25 6.75,30 15,30 C23.25,30 30,23.25 30,15 C30,6.75 23.25,0 15,0 Z M21,16.5 L16.5,16.5 L16.5,21 C16.5,21.9 15.9,22.5 15,22.5 C14.1,22.5 13.5,21.9 13.5,21 L13.5,16.5 L9,16.5 C8.1,16.5 7.5,15.9 7.5,15 C7.5,14.1 8.1,13.5 9,13.5 L13.5,13.5 L13.5,9 C13.5,8.1 14.1,7.5 15,7.5 C15.9,7.5 16.5,8.1 16.5,9 L16.5,13.5 L21,13.5 C21.9,13.5 22.5,14.1 22.5,15 C22.5,15.9 21.9,16.5 21,16.5 L21,16.5 Z" id="形状"></path>
            </g>
        </g>
    </g>
</svg>