<?xml version="1.0" encoding="UTF-8"?>
<svg width="24px" height="28px" viewBox="0 0 24 28" version="1.1" xmlns="http://www.w3.org/2000/svg" xmlns:xlink="http://www.w3.org/1999/xlink">
    <!-- Generator: Sketch 55.1 (78136) - https://sketchapp.com -->
    <title>编组</title>
    <desc>Created with Sketch.</desc>
    <g id="移动端1.0" stroke="none" stroke-width="1" fill="none" fill-rule="evenodd">
        <g id="首页" transform="translate(-207.000000, -346.000000)" fill="#FFFFFF" fill-rule="nonzero">
            <g id="编组" transform="translate(207.000000, 346.000000)">
                <path d="M22.0501512,-1.42108547e-14 L1.8031754,-1.42108547e-14 C0.816532258,-1.42108547e-14 0.0189012097,0.759148849 0.0189012097,1.69819079 L0.0189012097,26.2931743 C0.0189012097,27.2322163 0.816532258,27.9913651 1.8031754,27.9913651 L4.81602823,25.1130757 L7.96118952,27.9913651 L12.0211694,25.1130757 L15.9715222,27.9913651 L18.9012097,25.1130757 L22.0501512,27.9913651 C23.0367944,27.9913651 23.8344254,27.2322163 23.8344254,26.2931743 L23.8344254,1.69819079 C23.8344254,0.759148849 23.0367944,-1.42108547e-14 22.0501512,-1.42108547e-14 Z M3.21320565,7.05180921 C3.21320565,6.35742187 3.81048387,5.79255757 4.53629032,5.79255757 L15.1965726,5.79255757 C15.922379,5.79255757 16.5196573,6.35742187 16.5196573,7.05180921 C16.5196573,7.74619655 15.922379,8.31106086 15.1965726,8.31106086 L4.53629032,8.31106086 C3.81048387,8.31106086 3.21320565,7.74619655 3.21320565,7.05180921 Z M12.2479839,17.1258224 C12.2479839,17.8202097 11.6507056,18.385074 10.9248992,18.385074 L4.53629032,18.385074 C3.81048387,18.385074 3.21320565,17.8166118 3.21320565,17.1258224 C3.21320565,16.431435 3.81048387,15.8665707 4.53629032,15.8665707 L10.9248992,15.8665707 C11.6544859,15.8665707 12.2479839,16.431435 12.2479839,17.1258224 Z M19.9974798,12.0888158 C19.9974798,12.7832031 19.4002016,13.3480674 18.6743952,13.3480674 L4.53629032,13.3480674 C3.81048387,13.3480674 3.21320565,12.7796053 3.21320565,12.0888158 C3.21320565,11.3944285 3.81048387,10.8295641 4.53629032,10.8295641 L18.6743952,10.8295641 C19.4039819,10.8295641 19.9974798,11.3944285 19.9974798,12.0888158 Z" id="形状"></path>
            </g>
        </g>
    </g>
</svg>