<?xml version="1.0" encoding="UTF-8"?>
<svg width="24px" height="28px" viewBox="0 0 24 28" version="1.1" xmlns="http://www.w3.org/2000/svg" xmlns:xlink="http://www.w3.org/1999/xlink">
    <!-- Generator: Sketch 55.1 (78136) - https://sketchapp.com -->
    <title>编组</title>
    <desc>Created with Sketch.</desc>
    <g id="移动端1.0" stroke="none" stroke-width="1" fill="none" fill-rule="evenodd">
        <g id="首页" transform="translate(-30.000000, -454.000000)" fill="#FFFFFF" fill-rule="nonzero">
            <g id="编组" transform="translate(30.000000, 454.000000)">
                <path d="M21.2307224,-1.42108547e-14 L2.69379058,-1.42108547e-14 C1.2205763,-1.42108547e-14 0.0152191558,1.20871804 0.0152191558,2.734375 L0.0152191558,25.2308239 C0.0152191558,26.7347301 1.19926948,27.9651989 2.69379058,27.9651989 L21.2307224,27.9651989 C22.7039367,27.9651989 23.9092938,26.7564808 23.9092938,25.2308239 L23.9092938,2.70951705 C23.9092938,1.20871804 22.7039367,-1.42108547e-14 21.2307224,-1.42108547e-14 Z M5.99939123,5.93794389 L17.9464286,5.93794389 C18.3086445,5.93794389 18.5734578,6.2331321 18.5734578,6.57803622 C18.5734578,6.9477983 18.2842938,7.21812855 17.9464286,7.21812855 L5.99939123,7.21812855 C5.63717532,7.21812855 5.37236201,6.84836648 5.37236201,6.57803622 C5.37236201,6.2331321 5.63717532,5.93794389 5.99939123,5.93794389 Z M5.99939123,10.4465554 L13.5054789,10.4465554 C13.8676948,10.4465554 14.1325081,10.7417436 14.1325081,11.0866477 C14.1325081,11.4564098 13.8433442,11.7267401 13.5054789,11.7267401 L5.99939123,11.7267401 C5.63717532,11.7267401 5.37236201,11.356978 5.37236201,11.0866477 C5.37236201,10.7417436 5.63717532,10.4465554 5.99939123,10.4465554 Z M9.71895292,15.5486506 C9.71895292,15.9184126 9.42978896,16.1887429 9.0919237,16.1887429 L5.99939123,16.1887429 C5.63717532,16.1887429 5.37236201,15.8935547 5.37236201,15.5486506 C5.37236201,15.1788885 5.66152597,14.9085582 5.99939123,14.9085582 L9.08887987,14.9085582 C9.42674513,14.905451 9.78896104,15.1788885 9.71895292,15.5486506 Z M18.4486607,23.2049006 L15.9709821,22.002397 L13.4933036,23.2049006 C13.3076299,23.2950107 13.1036932,23.1241122 13.1523945,22.9190341 L13.7276786,20.5730646 L11.8557224,18.1152344 C11.7309253,17.9505504 11.8465909,17.7143999 12.0474838,17.7143999 L14.494724,17.7143999 L15.7518263,15.2752131 C15.8431412,15.0981001 16.0927354,15.0981001 16.1840503,15.2752131 L17.4411526,17.7143999 L19.8883929,17.7143999 C20.0923295,17.7143999 20.2049513,17.9505504 20.0801542,18.1152344 L18.2112419,20.5730646 L18.786526,22.9190341 C18.8382711,23.1241122 18.6343344,23.2950107 18.4486607,23.2049006 L18.4486607,23.2049006 Z" id="形状"></path>
            </g>
        </g>
    </g>
</svg>