<?xml version="1.0" encoding="UTF-8"?>
<svg width="27px" height="27px" viewBox="0 0 27 27" version="1.1" xmlns="http://www.w3.org/2000/svg" xmlns:xlink="http://www.w3.org/1999/xlink">
    <!-- Generator: Sketch 55.1 (78136) - https://sketchapp.com -->
    <title>编组</title>
    <desc>Created with Sketch.</desc>
    <g id="移动端1.0" stroke="none" stroke-width="1" fill="none" fill-rule="evenodd">
        <g id="首页" transform="translate(-207.000000, -454.000000)" fill="#FFFFFF" fill-rule="nonzero">
            <g id="编组" transform="translate(207.000000, 454.000000)">
                <path d="M1.88114062,5.78475 L24.1728906,5.78475 L24.1728906,1.927125 L1.87789062,1.927125 L1.87789062,5.78475 L1.88114062,5.78475 Z M24.1728906,0 L1.87789062,0 C0.772890625,0 0.025390625,0.772875 0.025390625,1.927125 L0.025390625,5.78475 C0.025390625,6.942375 0.769640625,7.71525 1.88114062,7.71525 L24.1728906,7.71525 C25.2843906,7.71525 26.0286406,6.942375 26.0286406,5.78475 L26.0286406,1.927125 C26.0253906,0.77625 25.2811406,0 24.1696406,0 L24.1728906,0 Z M1.87789062,15.427125 L24.1728906,15.427125 L24.1728906,11.57625 L1.87789062,11.57625 L1.87789062,15.42375 L1.87789062,15.427125 Z M24.1728906,9.642375 L1.87789062,9.642375 C0.772890625,9.642375 0.025390625,10.41525 0.025390625,11.57625 L0.025390625,15.42375 C0.025390625,16.581375 0.769640625,17.35425 1.88114062,17.35425 L24.1728906,17.35425 C25.2843906,17.35425 26.0286406,16.581375 26.0286406,15.42375 L26.0286406,11.57625 C26.0286406,10.418625 25.2843906,9.64575 24.1728906,9.64575 L24.1728906,9.642375 Z M1.87789062,25.07625 L24.1728906,25.07625 L24.1728906,21.21525 L1.87789062,21.21525 L1.87789062,25.072875 L1.87789062,25.07625 Z M24.1728906,19.28475 L1.87789062,19.28475 C0.766390625,19.28475 0.022140625,20.057625 0.022140625,21.21525 L0.022140625,25.072875 C0.025390625,26.22375 0.769640625,27 1.88114062,27 L24.1728906,27 C25.2778906,27 26.0253906,26.227125 26.0253906,25.072875 L26.0253906,21.21525 C26.0253906,20.057625 25.2811406,19.28475 24.1696406,19.28475 L24.1728906,19.28475 Z M4.67289062,2.892375 C5.22864062,2.892375 5.59914062,3.277125 5.59914062,3.857625 C5.59914062,4.43475 5.22864062,4.822875 4.67289062,4.822875 C4.11389062,4.822875 3.74339062,4.43475 3.74339062,3.857625 C3.74339062,3.277125 4.11389062,2.892375 4.67289062,2.892375 Z M4.67289062,12.53475 C5.22864062,12.53475 5.59914062,12.922875 5.59914062,13.5 C5.59914062,14.077125 5.22864062,14.46525 4.67289062,14.46525 C4.11389062,14.46525 3.74339062,14.077125 3.74339062,13.5 C3.74339062,12.922875 4.11389062,12.53475 4.67289062,12.53475 L4.67289062,12.53475 Z M4.67289062,22.177125 L8.37789062,22.177125 C8.93689062,22.177125 9.30739062,22.56525 9.30739062,23.142375 C9.30739062,23.722875 8.93689062,24.107625 8.37789062,24.107625 L4.67289062,24.107625 C4.11389062,24.107625 3.74339062,23.722875 3.74339062,23.142375 C3.74339062,22.56525 4.11389062,22.177125 4.67289062,22.177125 L4.67289062,22.177125 Z" id="形状"></path>
            </g>
        </g>
    </g>
</svg>