<?xml version="1.0" encoding="UTF-8"?>
<svg width="30px" height="30px" viewBox="0 0 30 30" version="1.1" xmlns="http://www.w3.org/2000/svg" xmlns:xlink="http://www.w3.org/1999/xlink">
    <!-- Generator: Sketch 55.1 (78136) - https://sketchapp.com -->
    <title>形状</title>
    <desc>Created with Sketch.</desc>
    <g id="移动端1.0" stroke="none" stroke-width="1" fill="none" fill-rule="evenodd">
        <g id="首页" transform="translate(-30.000000, -563.000000)" fill="#AEE252" fill-rule="nonzero">
            <path d="M45.0060549,578.917289 C44.7851052,578.920804 44.5671655,578.865083 44.3743272,578.755773 L38.6625404,575.408919 C38.2759223,575.178076 38.03639,574.759459 38.0308127,574.304886 L38.0308127,567.611177 C38.0323462,567.155485 38.2729541,566.734989 38.6625404,566.507144 L44.3743272,563.160289 C44.7697709,562.94657 45.2443572,562.94657 45.6398009,563.160289 L51.3455328,566.511233 C51.7318599,566.742369 51.971288,567.160803 51.9772605,567.615266 L51.9772605,574.308975 C51.9761407,574.76478 51.7354218,575.18547 51.3455328,575.413008 L45.633746,578.759862 C45.4409435,578.869263 45.2229792,578.924991 45.0020183,578.921378 L45.0060549,578.917289 Z M36.9752422,592.99984 C36.7545338,593.001294 36.5371058,592.945704 36.3435145,592.838324 L30.6317277,589.491469 C30.2451096,589.260626 30.0055773,588.84201 30,588.387437 L30,581.693727 C30.0011198,581.237922 30.2418387,580.817232 30.6317277,580.589694 L36.3435145,577.24284 C36.7389582,577.029121 37.2135445,577.029121 37.6089882,577.24284 L43.320775,580.589694 C43.7073931,580.820537 43.9469254,581.239154 43.9525027,581.693727 L43.9525027,588.387437 C43.9513829,588.843242 43.7106641,589.263932 43.320775,589.491469 L37.621098,592.821968 C37.4260003,592.941915 37.2014134,593.003575 36.9732239,592.99984 L36.9752422,592.99984 Z M53.0388859,592.99987 C52.8182097,593.001025 52.6008473,592.945451 52.4071582,592.838324 L46.6953714,589.491469 C46.3087533,589.260626 46.069221,588.84201 46.0636437,588.387437 L46.0636437,581.693727 C46.0647635,581.237922 46.3054824,580.817232 46.6953714,580.589694 L52.3910119,577.24284 C52.7864555,577.029121 53.2610418,577.029121 53.6564855,577.24284 L59.3682723,580.589694 C59.7548904,580.820537 59.9944227,581.239154 60,581.693727 L60,588.387437 C59.9988802,588.843242 59.7581614,589.263932 59.3682723,589.491469 L53.6564855,592.838324 C53.4687233,592.945661 53.2564968,593.001345 53.0409042,592.99987 L53.0388859,592.99987 Z" id="形状"></path>
        </g>
    </g>
</svg>