<?xml version="1.0" encoding="UTF-8"?>
<svg width="25px" height="30px" viewBox="0 0 25 30" version="1.1" xmlns="http://www.w3.org/2000/svg" xmlns:xlink="http://www.w3.org/1999/xlink">
    <!-- Generator: Sketch 55.1 (78136) - https://sketchapp.com -->
    <title>编组</title>
    <desc>Created with Sketch.</desc>
    <g id="移动端1.0" stroke="none" stroke-width="1" fill="none" fill-rule="evenodd">
        <g id="首页" transform="translate(-207.000000, -563.000000)" fill="#FFFFFF" fill-rule="nonzero">
            <g id="编组" transform="translate(207.000000, 563.000000)">
                <path d="M0.00713542969,2.94999999 C0.00713542969,2.60166665 0.26546877,2.26666667 0.59380207,2.19500001 C0.59380207,2.19500001 10.8438021,0.0133333301 12.4738021,0.0133333301 C14.1054687,0.0133333301 24.3904688,2.19833332 24.3904688,2.19833332 C24.7283477,2.29117354 24.962848,2.59793273 24.9638021,2.94833332 L24.9638021,14.3416667 C24.9638021,18.5266667 22.3388021,23.8483333 19.0621354,26.1733333 C19.0621354,26.1733333 14.2021354,29.99 12.5454688,29.99 C10.8921354,29.99 5.92213544,26.1383333 5.92213541,26.1383333 C2.65546875,23.8083333 0.00713542969,18.5283333 0.00713542969,14.3416667 L0.00713542969,2.94999999 Z M11.6038021,8.14833334 L8.95380208,15.4616667 C8.86046874,15.72 8.99380207,15.9416667 9.26046876,15.9416667 L11.8038021,15.9416667 C12.0638021,15.9416667 12.2371354,16.17 12.1838021,16.4533333 L11.3588021,20.72 C11.1421354,21.84 11.4704688,21.9933333 12.0888021,21.0666667 L17.1604688,13.4733333 C17.3171354,13.2433333 17.2238021,13.0516667 16.9571354,13.045 L13.7854688,12.9583333 C13.5138021,12.9516667 13.3888021,12.735 13.4954687,12.4766667 L15.2754688,8.13333334 C15.3788021,7.87833334 15.2521354,7.66666667 14.9854687,7.66666667 L12.2604688,7.66666667 C11.9676067,7.68740129 11.7124476,7.87391358 11.6038021,8.14666667 L11.6038021,8.14833334 Z" id="形状"></path>
            </g>
        </g>
    </g>
</svg>