<?xml version="1.0" encoding="UTF-8"?>
<svg width="15px" height="15px" viewBox="0 0 15 15" version="1.1" xmlns="http://www.w3.org/2000/svg" xmlns:xlink="http://www.w3.org/1999/xlink">
    <!-- Generator: Sketch 55.1 (78136) - https://sketchapp.com -->
    <title>编组</title>
    <desc>Created with Sketch.</desc>
    <g id="移动端1.0" stroke="none" stroke-width="1" fill="none" fill-rule="evenodd">
        <g id="发票管理" transform="translate(-329.000000, -86.000000)" fill="#147CEC" fill-rule="nonzero">
            <g id="编组" transform="translate(0.000000, 64.000000)">
                <g id="编组-7" transform="translate(328.000000, 21.000000)">
                    <g id="编组" transform="translate(1.062500, 1.062500)">
                        <path d="M1.15380249,12.5456862 L1.15380249,10.2658137 L0.0139256687,10.2658137 L0.0139256687,12.5456713 C0.0139256687,13.80477 1.03461026,14.8254695 2.2937684,14.8254695 L4.57358143,14.8254695 L4.57358143,13.685563 L2.2937684,13.685563 C1.66417449,13.685563 1.15380249,13.1752355 1.15380249,12.5456862 L1.15380249,12.5456862 Z M1.15380249,2.28646813 C1.15380249,1.65690391 1.66421902,1.14650222 2.2937684,1.14650222 L4.57358143,1.14650222 L4.57358143,0.00658085727 L2.2937684,0.00658085727 C1.03461027,0.00658085727 0.0139256687,1.02726544 0.0139256687,2.28646813 L0.0139256687,5.70615797 L1.15381734,5.70615797 L1.15381734,2.28646813 L1.15380249,2.28646813 Z M13.6928929,12.5456862 C13.6928929,13.1752504 13.1825358,13.6855778 12.5530013,13.6855778 L10.273114,13.6855778 L10.273114,14.8254843 L12.5530013,14.8254843 C13.8121,14.8254843 14.8327698,13.8047997 14.8327698,12.5456861 L14.8327698,10.2658137 L13.6928781,10.2658137 L13.6928781,12.5456862 L13.6928929,12.5456862 Z M12.5530013,0.00658085727 L10.273114,0.00658085727 L10.273114,1.14650222 L12.5530013,1.14650222 C13.1825209,1.14650222 13.6928929,1.65690391 13.6928929,2.28646813 L13.6928929,5.70615797 L14.8327846,5.70615797 L14.8327846,2.28646813 C14.8327846,1.02726544 13.8121,0.00658085727 12.5530013,0.00658085727 L12.5530013,0.00658085727 Z M11.4130799,7.41601031 C11.4130799,7.10127275 11.1578568,6.84613873 10.8430895,6.84613873 L7.99333066,6.84613873 L7.99333066,3.99626108 C7.99333066,3.68152352 7.73815209,3.42634495 7.42334029,3.42634495 C7.10860272,3.42634495 6.85342415,3.68152352 6.85342415,3.99626108 L6.85342415,6.84613874 L4.00359105,6.84613873 C3.68885348,6.84613873 3.43367491,7.1012876 3.43367491,7.41601031 C3.43367491,7.73083696 3.68885348,7.98600069 4.00359105,7.98600069 L6.85342415,7.98600069 L6.85342415,10.8358041 C6.85342415,11.1505417 7.10860272,11.4057796 7.42334029,11.4057796 C7.73815209,11.4057796 7.99333066,11.1505417 7.99333066,10.8358041 L7.99333066,7.98600069 L10.8430895,7.98600069 C11.1578568,7.9860007 11.4130799,7.73083698 11.4130799,7.41601031 L11.4130799,7.41601031 Z" id="形状"></path>
                    </g>
                </g>
            </g>
        </g>
    </g>
</svg>