<?xml version="1.0" encoding="UTF-8"?>
<svg width="14px" height="17px" viewBox="0 0 14 17" version="1.1" xmlns="http://www.w3.org/2000/svg" xmlns:xlink="http://www.w3.org/1999/xlink">
    <!-- Generator: Sketch 55.1 (78136) - https://sketchapp.com -->
    <title>编组</title>
    <desc>Created with Sketch.</desc>
    <defs>
        <linearGradient x1="83.4113438%" y1="100%" x2="16.5886562%" y2="0%" id="linearGradient-1">
            <stop stop-color="#EFCB48" offset="0%"></stop>
            <stop stop-color="#F76E1E" offset="97.7804597%"></stop>
            <stop stop-color="#F76B1C" offset="100%"></stop>
        </linearGradient>
    </defs>
    <g id="移动端1.0" stroke="none" stroke-width="1" fill="none" fill-rule="evenodd">
        <g id="发票管理" transform="translate(-15.000000, -143.000000)" fill="url(#linearGradient-1)">
            <g id="编组-3" transform="translate(0.000000, 131.000000)">
                <g id="编组-2" transform="translate(15.000000, 10.000000)">
                    <g id="编组" transform="translate(0.000000, 2.000000)">
                        <path d="M12.8625882,-1.42108547e-14 L1.05185232,-1.42108547e-14 C0.476310484,-1.42108547e-14 0.0110257056,0.460911801 0.0110257056,1.03104441 L0.0110257056,15.963713 C0.0110257056,16.5338456 0.476310484,16.9947574 1.05185232,16.9947574 L2.8093498,15.2472245 L4.64402722,16.9947574 L7.01234879,15.2472245 L9.31672127,16.9947574 L11.0257056,15.2472245 L12.8625882,16.9947574 C13.43813,16.9947574 13.9034148,16.5338456 13.9034148,15.963713 L13.9034148,1.03104441 C13.9034148,0.460911801 13.43813,-1.42108547e-14 12.8625882,-1.42108547e-14 Z M1.87436996,4.28145559 C1.87436996,3.85986328 2.22278226,3.51690995 2.64616935,3.51690995 L8.86466734,3.51690995 C9.28805444,3.51690995 9.63646673,3.85986328 9.63646673,4.28145559 C9.63646673,4.7030479 9.28805444,5.04600123 8.86466734,5.04600123 L2.64616935,5.04600123 C2.22278226,5.04600123 1.87436996,4.7030479 1.87436996,4.28145559 Z M7.14465726,10.3978207 C7.14465726,10.819413 6.79624496,11.1623664 6.37285786,11.1623664 L2.64616935,11.1623664 C2.22278226,11.1623664 1.87436996,10.8172286 1.87436996,10.3978207 C1.87436996,9.97622841 2.22278226,9.63327508 2.64616935,9.63327508 L6.37285786,9.63327508 C6.7984501,9.63327508 7.14465726,9.97622841 7.14465726,10.3978207 Z M11.6651966,7.33963816 C11.6651966,7.76123047 11.3167843,8.1041838 10.8933972,8.1041838 L2.64616935,8.1041838 C2.22278226,8.1041838 1.87436996,7.75904605 1.87436996,7.33963816 C1.87436996,6.91804585 2.22278226,6.57509252 2.64616935,6.57509252 L10.8933972,6.57509252 C11.3189894,6.57509252 11.6651966,6.91804585 11.6651966,7.33963816 Z" id="形状"></path>
                    </g>
                </g>
            </g>
        </g>
    </g>
</svg>