<?xml version="1.0" standalone="no"?><!DOCTYPE svg PUBLIC "-//W3C//DTD SVG 1.1//EN" "http://www.w3.org/Graphics/SVG/1.1/DTD/svg11.dtd"><svg t="1562651162107" class="icon" viewBox="0 0 1024 1024" version="1.1" xmlns="http://www.w3.org/2000/svg" p-id="2738" xmlns:xlink="http://www.w3.org/1999/xlink" width="200" height="200"><defs><style type="text/css"></style></defs><path d="M516.233418 960.439382c-246.572792 0-447.179692-200.605877-447.179692-447.189925 0-246.572792 200.605877-447.179692 447.179692-447.179692 246.594281 0 447.201182 200.605877 447.201182 447.179692C963.434599 759.832482 762.827699 960.439382 516.233418 960.439382zM516.233418 98.531084c-228.672096 0-414.71735 186.045253-414.71735 414.71735 0 228.683353 186.045253 414.727583 414.71735 414.727583 228.693586 0 414.738839-186.045253 414.738839-414.727583C930.972257 284.576337 744.927003 98.531084 516.233418 98.531084z" p-id="2739" fill="#1296db"></path><path d="M351.107613 505.524518m-24.907273 0a24.34 24.34 0 1 0 49.814546 0 24.34 24.34 0 1 0-49.814546 0Z" p-id="2740" fill="#1296db"></path><path d="M351.111706 546.662451c-22.697955 0-41.148166-18.450211-41.148166-41.137932 0-22.687722 18.450211-41.137932 41.148166-41.137932 22.677489 0 41.127699 18.450211 41.127699 41.137932C392.238382 528.21224 373.788172 546.662451 351.111706 546.662451zM351.111706 496.848928c-4.797259 0-8.685823 3.888564-8.685823 8.67559 0 4.787026 3.888564 8.67559 8.685823 8.67559 4.776793 0 8.665357-3.888564 8.665357-8.67559C359.777063 500.737492 355.887476 496.848928 351.111706 496.848928z" p-id="2741" fill="#1296db"></path><path d="M485.46567 505.524518m-24.907273 0a24.34 24.34 0 1 0 49.814546 0 24.34 24.34 0 1 0-49.814546 0Z" p-id="2742" fill="#1296db"></path><path d="M485.461577 546.662451c-22.677489 0-41.127699-18.450211-41.127699-41.137932 0-22.687722 18.450211-41.137932 41.127699-41.137932 22.697955 0 41.148166 18.450211 41.148166 41.137932C526.610766 528.21224 508.160555 546.662451 485.461577 546.662451zM485.461577 496.848928c-4.776793 0-8.665357 3.888564-8.665357 8.67559 0 4.787026 3.888564 8.67559 8.665357 8.67559 4.797259 0 8.685823-3.888564 8.685823-8.67559C494.148423 500.737492 490.25986 496.848928 485.461577 496.848928z" p-id="2743" fill="#1296db"></path><path d="M671.221328 378.959961m-24.907273 0a24.34 24.34 0 1 0 49.814546 0 24.34 24.34 0 1 0-49.814546 0Z" p-id="2744" fill="#1296db"></path><path d="M671.211095 420.09994c-22.677489 0-41.127699-18.450211-41.127699-41.137932 0-22.687722 18.450211-41.137932 41.127699-41.137932 22.697955 0 41.148166 18.450211 41.148166 41.137932C712.35926 401.649729 693.90905 420.09994 671.211095 420.09994zM671.211095 370.286418c-4.776793 0-8.665357 3.888564-8.665357 8.67559 0 4.787026 3.888564 8.67559 8.665357 8.67559 4.797259 0 8.685823-3.888564 8.685823-8.67559C679.896918 374.174981 676.008354 370.286418 671.211095 370.286418z" p-id="2745" fill="#1296db"></path><path d="M573.401442 395.192667 326.1942 395.192667c-8.961092 0-16.23066-7.270591-16.23066-16.23066 0-8.961092 7.270591-16.23066 16.23066-16.23066l247.207241 0c8.961092 0 16.23066 7.270591 16.23066 16.23066C589.633125 387.9231 582.362534 395.192667 573.401442 395.192667z" p-id="2746" fill="#1296db"></path><path d="M706.272635 521.755178 585.110111 521.755178c-8.961092 0-16.23066-7.270591-16.23066-16.23066 0-8.961092 7.270591-16.23066 16.23066-16.23066l121.162524 0c8.961092 0 16.23066 7.270591 16.23066 16.23066C722.503295 514.485611 715.233728 521.755178 706.272635 521.755178z" p-id="2747" fill="#1296db"></path><path d="M706.272635 663.777799 326.1942 663.777799c-8.961092 0-16.23066-7.270591-16.23066-16.23066 0-8.961092 7.270591-16.23066 16.23066-16.23066l380.078435 0c8.961092 0 16.23066 7.270591 16.23066 16.23066C722.503295 656.507208 715.233728 663.777799 706.272635 663.777799z" p-id="2748" fill="#1296db"></path></svg>