<?xml version="1.0" encoding="UTF-8"?>
<svg width="20px" height="20px" viewBox="0 0 20 20" version="1.1" xmlns="http://www.w3.org/2000/svg" xmlns:xlink="http://www.w3.org/1999/xlink">
    <!-- Generator: Sketch 59.1 (86144) - https://sketch.com -->
    <title>编组 9</title>
    <desc>Created with Sketch.</desc>
    <g id="电脑端1.0" stroke="none" stroke-width="1" fill="none" fill-rule="evenodd">
        <g id="控制中心" transform="translate(-1165.000000, -275.000000)">
            <g id="编组-13" transform="translate(400.000000, 150.000000)">
                <g id="编组-9" transform="translate(765.000000, 125.000000)">
                    <circle id="椭圆形" fill="#FFC0C8" cx="10" cy="10" r="10"></circle>
                    <path d="M11.4950293,6.16519174 C11.2809075,5.94493609 10.9240377,5.94493609 10.7099159,6.16519174 C10.495794,6.3854474 10.495794,6.75254016 10.7099159,6.9727958 L13.095845,9.42707309 L5.55059903,9.42707309 C5.24471067,9.42707309 5,9.67879383 5,9.99344477 C5,10.3080957 5.24471067,10.5703048 5.55059903,10.5703048 L13.095845,10.5703048 L10.7099159,13.0245821 C10.495794,13.2448378 10.495794,13.6119305 10.7099159,13.8321862 C10.8220749,13.9475582 10.9648228,14 11.1075707,14 C11.2503186,14 11.3930665,13.9475582 11.5052256,13.8321862 L14.8394086,10.402491 C15.0535305,10.1822353 15.0535305,9.81514257 14.8394086,9.59488691 L11.4950293,6.16519174 L11.4950293,6.16519174 Z" id="路径" fill="#EA909B" fill-rule="nonzero"></path>
                </g>
            </g>
        </g>
    </g>
</svg>