<?xml version="1.0" encoding="UTF-8"?>
<svg width="50px" height="50px" viewBox="0 0 50 50" version="1.1" xmlns="http://www.w3.org/2000/svg" xmlns:xlink="http://www.w3.org/1999/xlink">
    <!-- Generator: Sketch 59.1 (86144) - https://sketch.com -->
    <title>编组 14</title>
    <desc>Created with Sketch.</desc>
    <defs>
        <linearGradient x1="100%" y1="100%" x2="0%" y2="0%" id="linearGradient-1">
            <stop stop-color="#FAD961" offset="0%"></stop>
            <stop stop-color="#F76B1C" offset="100%"></stop>
        </linearGradient>
    </defs>
    <g id="电脑端1.0" stroke="none" stroke-width="1" fill="none" fill-rule="evenodd">
        <g id="控制中心" transform="translate(-443.000000, -363.000000)">
            <g id="编组-26" transform="translate(400.000000, 350.000000)">
                <g id="编组-25" transform="translate(40.000000, 13.000000)">
                    <g id="编组-14" transform="translate(3.000000, 0.000000)">
                        <circle id="椭圆形" fill="url(#linearGradient-1)" cx="25" cy="25" r="25"></circle>
                        <g id="编组" transform="translate(15.000000, 16.000000)" fill="#FFFFFF" fill-rule="nonzero">
                            <path d="M5.05989583,11.1293403 C5.67100694,11.1293403 6.11545139,11.6293403 6.11545139,12.1848958 C6.11545139,12.7404514 5.67100694,13.2404514 5.05989583,13.2404514 C4.44878472,13.2404514 4.00434028,12.7960069 4.00434028,12.1848958 C4.00434028,11.5737847 4.44878472,11.1293403 5.05989583,11.1293403 Z M5.05989583,7.18489583 C5.67100694,7.18489583 6.11545139,7.68489583 6.11545139,8.24045139 C6.11545139,8.79600694 5.67100694,9.29600694 5.05989583,9.29600694 C4.44878472,9.29600694 4.00434028,8.8515625 4.00434028,8.24045139 C4.00434028,7.68489583 4.44878472,7.18489583 5.05989583,7.18489583 Z M15.3932292,7.24045139 C15.9487847,7.24045139 16.3932292,7.68489583 16.3932292,8.24045139 C16.3932292,8.79600694 15.9487847,9.24045139 15.3932292,9.24045139 L8.7265625,9.24045139 C8.17100694,9.24045139 7.7265625,8.79600694 7.7265625,8.24045139 C7.7265625,7.68489583 8.17100694,7.24045139 8.7265625,7.24045139 L15.3932292,7.24045139 Z M15.3932292,13.1848958 L8.7265625,13.1848958 C8.17100694,13.1848958 7.7265625,12.7404514 7.7265625,12.1848958 C7.7265625,11.6293403 8.17100694,11.1848958 8.7265625,11.1848958 L15.3932292,11.1848958 C15.9487847,11.1848958 16.3932292,11.6293403 16.3932292,12.1848958 C16.3932292,12.7404514 15.9487847,13.1848958 15.3932292,13.1848958 Z M19.9487847,16.4071181 L19.9487847,3.90711806 C19.9487847,2.40711806 18.5598958,2.51822917 18.5598958,2.51822917 L10.7265625,2.51822917 C10.2821181,2.51822917 10.0043403,2.29600694 10.0043403,2.29600694 C10.0043403,2.29600694 9.67100694,1.74045139 9.05989583,0.8515625 C8.50434028,-0.1484375 7.78211806,0.0182291667 7.78211806,0.0182291667 L1.7265625,0.0182291667 C0.00434027778,0.0182291667 0.00434027778,1.62934028 0.00434027778,1.62934028 L0.00434027778,16.2960069 C0.00434027778,18.1293403 1.39322917,17.9071181 1.39322917,17.9071181 L18.7265625,17.9071181 C20.1710069,17.9071181 19.9487847,16.4071181 19.9487847,16.4071181 L19.9487847,16.4071181 Z" id="形状"></path>
                        </g>
                    </g>
                </g>
            </g>
        </g>
    </g>
</svg>