<?xml version="1.0" encoding="UTF-8"?>
<svg width="50px" height="50px" viewBox="0 0 50 50" version="1.1" xmlns="http://www.w3.org/2000/svg" xmlns:xlink="http://www.w3.org/1999/xlink">
    <!-- Generator: Sketch 59.1 (86144) - https://sketch.com -->
    <title>编组 15</title>
    <desc>Created with Sketch.</desc>
    <defs>
        <linearGradient x1="100%" y1="100%" x2="0%" y2="0%" id="linearGradient-1">
            <stop stop-color="#B4EC51" offset="0%"></stop>
            <stop stop-color="#429321" offset="100%"></stop>
        </linearGradient>
    </defs>
    <g id="电脑端1.0" stroke="none" stroke-width="1" fill="none" fill-rule="evenodd">
        <g id="控制中心" transform="translate(-580.000000, -363.000000)">
            <g id="编组-26" transform="translate(400.000000, 350.000000)">
                <g id="编组-24" transform="translate(177.000000, 13.000000)">
                    <g id="编组-15" transform="translate(3.000000, 0.000000)">
                        <circle id="椭圆形" fill="url(#linearGradient-1)" cx="25" cy="25" r="25"></circle>
                        <g id="编组" transform="translate(15.000000, 15.000000)" fill="#FFFFFF" fill-rule="nonzero">
                            <path d="M15.6517857,10.5301931 C16.9888393,10.5301931 18.2053571,11.0324813 19.1316964,11.8540016 L19.1316964,4.30405179 C19.1316964,1.93548387 17.1741071,0 14.7834821,0 L4.34821429,0 C1.95535714,0 0,1.93771626 0,4.30405179 L0,14.6377944 C0,17.0063623 1.95758929,18.9418462 4.34821429,18.9418462 L11.5982143,18.9418462 C10.8727679,18.0555866 10.4375,16.9259962 10.4375,15.6959482 C10.4352679,12.8429512 12.7700893,10.5301931 15.6517857,10.5301931 Z M4.34821429,4.79071325 L14.7834821,4.79071325 C15.2611607,4.79071325 15.6540179,5.17914946 15.6540179,5.65241656 C15.6540179,6.12568367 15.2611607,6.51411988 14.7834821,6.51411988 L4.34821429,6.51411988 C3.87053571,6.51411988 3.47767857,6.12568367 3.47767857,5.65241656 C3.47991071,5.17914946 3.86830357,4.79071325 4.34821429,4.79071325 Z M7.82589286,15.1222235 L4.34821429,15.1222235 C3.87053571,15.1222235 3.47767857,14.7337873 3.47767857,14.2605201 C3.47767857,13.787253 3.87053571,13.3988168 4.34821429,13.3988168 L7.828125,13.3988168 C8.30580357,13.3988168 8.69866071,13.787253 8.69866071,14.2605201 C8.69642857,14.7337873 8.30357143,15.1222235 7.82589286,15.1222235 Z M7.82589286,10.8181717 L4.34821429,10.8181717 C3.87053571,10.8181717 3.47767857,10.4297355 3.47767857,9.95646836 C3.47767857,9.48320125 3.87053571,9.09476504 4.34821429,9.09476504 L7.828125,9.09476504 C8.30580357,9.09476504 8.69866071,9.48320125 8.69866071,9.95646836 C8.69642857,10.4297355 8.30357143,10.8181717 7.82589286,10.8181717 Z M15.6517857,11.3918964 C13.25,11.3918964 11.3035714,13.3184507 11.3035714,15.6959482 C11.3035714,18.0734457 13.25,20 15.6517857,20 C18.0535714,20 20,18.0756781 20,15.6981806 C20,13.3184507 18.0535714,11.3918964 15.6517857,11.3918964 L15.6517857,11.3918964 Z M18.3392857,15.5151245 L17.4553571,16.3411095 C17.3883929,16.4036165 17.3571429,16.4951445 17.3705357,16.5866726 L17.5558036,17.7765376 C17.6071429,18.1046992 17.2566964,18.3480299 16.9620536,18.1872977 L15.8928571,17.6091082 C15.8125,17.5644603 15.7142857,17.5622279 15.6316964,17.6046434 L14.5446429,18.1471146 C14.2455357,18.2966849 13.9040179,18.0421922 13.9642857,17.716263 L14.1897321,16.5330952 C14.2075893,16.4437995 14.1785714,16.3500391 14.1138393,16.2852997 L13.2589286,15.4302936 C13.0223214,15.1958924 13.1629464,14.7940618 13.4955357,14.7516464 L14.7008929,14.5998437 C14.7924107,14.5886818 14.8727679,14.532872 14.9151786,14.4502735 L15.4732143,13.3787253 C15.6272321,13.0840496 16.0558036,13.0907467 16.1964286,13.3921197 L16.7142857,14.481527 C16.7544643,14.5641255 16.8303571,14.6221677 16.9241071,14.6377944 L18.1227679,14.8320125 C18.4575893,14.8811251 18.5848214,15.2874205 18.3392857,15.5151245 L18.3392857,15.5151245 Z" id="形状"></path>
                        </g>
                    </g>
                </g>
            </g>
        </g>
    </g>
</svg>