<?xml version="1.0" encoding="UTF-8"?>
<svg width="50px" height="50px" viewBox="0 0 50 50" version="1.1" xmlns="http://www.w3.org/2000/svg" xmlns:xlink="http://www.w3.org/1999/xlink">
    <!-- Generator: Sketch 59.1 (86144) - https://sketch.com -->
    <title>编组 16</title>
    <desc>Created with Sketch.</desc>
    <defs>
        <linearGradient x1="0%" y1="0%" x2="100%" y2="100%" id="linearGradient-1">
            <stop stop-color="#C6B800" offset="0%"></stop>
            <stop stop-color="#FFF147" offset="100%"></stop>
        </linearGradient>
    </defs>
    <g id="电脑端1.0" stroke="none" stroke-width="1" fill="none" fill-rule="evenodd">
        <g id="控制中心" transform="translate(-717.000000, -363.000000)">
            <g id="编组-26" transform="translate(400.000000, 350.000000)">
                <g id="编组-23" transform="translate(314.000000, 13.000000)">
                    <g id="编组-16" transform="translate(3.000000, 0.000000)">
                        <circle id="椭圆形" fill="url(#linearGradient-1)" cx="25" cy="25" r="25"></circle>
                        <g id="编组" transform="translate(15.000000, 16.000000)" fill="#FFFFFF" fill-rule="nonzero">
                            <path d="M18.8189656,10.4158758 C18.5706943,10.3177068 18.3720772,10.2195379 18.2231144,10.0722845 C17.6272633,9.48327102 17.6272633,8.50158182 18.2231144,7.91256831 C18.3720772,7.76531493 18.5706943,7.61806155 18.8189656,7.56897709 C19.464471,7.37263925 19.9113594,6.73454127 19.9113594,6.09644329 L19.9113594,2.26785543 C19.9113594,1.62975745 19.6630881,1.04074394 19.265854,0.648068258 C18.8189656,0.20630812 18.2727687,0.00997028089 17.6272633,0.00997028089 L2.33375035,0.00997028089 C1.7378992,-0.0391141789 1.14204804,0.20630812 0.695159679,0.648068258 C0.297925577,1.04074394 0.0496542628,1.62975745 0.0496542628,2.21877097 L0.0496542628,6.04735883 C0.0496542628,6.48911897 0.198617051,6.88179465 0.496542628,7.17630141 C0.645505416,7.32355479 0.89377673,7.47080817 1.09239378,7.56897709 C1.3406651,7.66714601 1.53928215,7.76531493 1.68824494,7.91256831 C1.98617051,8.20707506 2.1351333,8.59975074 2.1351333,8.99242642 C2.1351333,9.3851021 1.98617051,9.77777778 1.68824494,10.0722845 C1.53928215,10.2195379 1.3406651,10.3667913 1.09239378,10.4158758 C0.446888365,10.6122136 0,11.2503116 0,11.8884095 L0,15.7169974 C0.0496542628,16.3550954 0.297925577,16.9441089 0.695159679,17.3367846 C1.14204804,17.7785447 1.68824494,17.9748826 2.33375035,17.9748826 L17.6272633,17.9748826 C18.8686199,17.9748826 19.9113594,16.9441089 19.9113594,15.7169974 L19.9113594,11.8884095 C19.9113594,11.4466494 19.7623966,11.0539737 19.464471,10.759467 C19.265854,10.6122136 19.0672369,10.5140447 18.8189656,10.4158758 Z M14.3500819,14.3426325 L5.6109317,14.3426325 C5.21369759,14.3426325 4.86611775,13.9990413 4.86611775,13.6063656 C4.86611775,13.21369 5.21369759,12.8700987 5.6109317,12.8700987 L14.3500819,12.8700987 C14.7473161,12.8700987 15.0948959,13.21369 15.0948959,13.6063656 C15.0948959,13.9990413 14.7473161,14.3426325 14.3500819,14.3426325 L14.3500819,14.3426325 Z M14.3500819,9.72869332 L5.6109317,9.72869332 C5.21369759,9.72869332 4.86611775,9.3851021 4.86611775,8.99242642 C4.86611775,8.59975074 5.21369759,8.25615952 5.6109317,8.25615952 L14.3500819,8.25615952 C14.7473161,8.25615952 15.0948959,8.59975074 15.0948959,8.99242642 C15.0948959,9.3851021 14.7473161,9.72869332 14.3500819,9.72869332 L14.3500819,9.72869332 Z M14.3500819,5.1147541 L5.6109317,5.1147541 C5.21369759,5.1147541 4.86611775,4.77116288 4.86611775,4.3784872 C4.86611775,3.98581152 5.21369759,3.6422203 5.6109317,3.6422203 L14.3500819,3.6422203 C14.7473161,3.6422203 15.0948959,3.98581152 15.0948959,4.3784872 C15.0948959,4.77116288 14.7473161,5.1147541 14.3500819,5.1147541 L14.3500819,5.1147541 Z" id="形状"></path>
                        </g>
                    </g>
                </g>
            </g>
        </g>
    </g>
</svg>