<?xml version="1.0" encoding="UTF-8"?>
<svg width="50px" height="50px" viewBox="0 0 50 50" version="1.1" xmlns="http://www.w3.org/2000/svg" xmlns:xlink="http://www.w3.org/1999/xlink">
    <!-- Generator: Sketch 59.1 (86144) - https://sketch.com -->
    <title>编组 17</title>
    <desc>Created with Sketch.</desc>
    <defs>
        <linearGradient x1="0%" y1="0%" x2="100%" y2="100%" id="linearGradient-1">
            <stop stop-color="#10AB89" offset="0%"></stop>
            <stop stop-color="#50E3C2" offset="100%"></stop>
        </linearGradient>
    </defs>
    <g id="电脑端1.0" stroke="none" stroke-width="1" fill="none" fill-rule="evenodd">
        <g id="控制中心" transform="translate(-853.000000, -363.000000)">
            <g id="编组-26" transform="translate(400.000000, 350.000000)">
                <g id="编组-22" transform="translate(443.000000, 13.000000)">
                    <g id="编组-17" transform="translate(10.000000, 0.000000)">
                        <circle id="椭圆形" fill="url(#linearGradient-1)" cx="25" cy="25" r="25"></circle>
                        <g id="编组" transform="translate(13.000000, 15.000000)" fill="#FFFFFF" fill-rule="nonzero">
                            <path d="M18.0651198,3.7803833 C16.867515,3.7803833 15.9094311,4.75107349 15.9094311,5.96443625 C15.9094311,7.17779901 16.867515,8.1484892 18.0651198,8.1484892 C19.2627246,8.1484892 20.2208084,7.17779901 20.2208084,5.96443625 C20.2208084,4.75107349 19.2627246,3.7803833 18.0651198,3.7803833 Z M12.9154192,0.0189588024 C11.7178144,0.0189588024 10.7597305,0.989648991 10.7597305,2.20301175 C10.7597305,3.41637451 11.7178144,4.3870647 12.9154192,4.3870647 C14.113024,4.3870647 15.0711078,3.41637451 15.0711078,2.20301175 C15.0711078,0.989648991 13.9932635,0.0189588024 12.9154192,0.0189588024 Z M23.8136228,10.9392235 C23.8136228,10.9392235 22.9752994,8.99784313 20.6998503,10.9392235 C19.2627246,12.2739225 17.1070359,13.9726304 17.1070359,13.9726304 L11.9573353,13.9726304 L10.4004491,12.7592677 C10.4004491,12.7592677 9.92140717,12.3952588 10.4004491,12.3952588 C11.5980539,12.2739225 12.9154192,11.9099137 13.633982,11.6672412 C14.3525449,11.5459049 14.8315868,10.8178873 14.8315868,9.96853332 C14.8315868,8.75517056 13.633982,8.63383431 13.633982,8.63383431 L6.08907185,8.63383431 C6.08907185,8.63383431 5.8495509,8.63383431 5.49026946,8.99784313 C5.25074851,9.36185195 0.340568853,14.0939667 0.101047904,14.4579755 C-0.138473045,14.8219843 0.101047904,15.3073294 0.340568853,15.3073294 L4.41242515,20.2821167 C4.41242515,20.2821167 4.6519461,20.8887981 5.49026946,20.2821167 L7.16691616,18.5834088 C7.16691616,18.5834088 7.64595808,18.0980637 8.36452096,18.0980637 L17.2267964,18.0980637 C17.2267964,18.0980637 17.7058383,18.2194 17.9453593,17.9767275 L23.8136228,12.03125 C24.0531437,11.5459049 23.8136228,10.9392235 23.8136228,10.9392235 L23.8136228,10.9392235 Z" id="形状"></path>
                        </g>
                    </g>
                </g>
            </g>
        </g>
    </g>
</svg>