<?xml version="1.0" encoding="UTF-8"?>
<svg width="50px" height="50px" viewBox="0 0 50 50" version="1.1" xmlns="http://www.w3.org/2000/svg" xmlns:xlink="http://www.w3.org/1999/xlink">
    <!-- Generator: Sketch 59.1 (86144) - https://sketch.com -->
    <title>编组 18</title>
    <desc>Created with Sketch.</desc>
    <defs>
        <linearGradient x1="0%" y1="0%" x2="100%" y2="100%" id="linearGradient-1">
            <stop stop-color="#FF4343" offset="0%"></stop>
            <stop stop-color="#FF7272" offset="100%"></stop>
        </linearGradient>
    </defs>
    <g id="电脑端1.0" stroke="none" stroke-width="1" fill="none" fill-rule="evenodd">
        <g id="控制中心" transform="translate(-990.000000, -363.000000)">
            <g id="编组-26" transform="translate(400.000000, 350.000000)">
                <g id="编组-21" transform="translate(587.000000, 13.000000)">
                    <g id="编组-18" transform="translate(3.000000, 0.000000)">
                        <circle id="椭圆形" fill="url(#linearGradient-1)" cx="25" cy="25" r="25"></circle>
                        <g id="编组" transform="translate(16.000000, 14.000000)" fill="#FFFFFF" fill-rule="nonzero">
                            <path d="M10.2164788,10.155726 L10.2164788,7.20468645 L8.75718547,7.20468645 L8.75718547,10.155726 L5.83859867,10.155726 L5.83859867,11.6312458 L8.75718547,11.6312458 L8.75718547,14.5822854 L10.2164788,14.5822854 L10.2164788,11.6312458 L13.1350656,11.6312458 L13.1350656,10.155726 L10.2164788,10.155726 L10.2164788,10.155726 Z M18.2279996,2.57745641 C18.6497354,2.57745641 18.9722392,2.90354629 18.9722392,3.30636319 L18.9722392,12.7083753 C18.9722392,17.7885899 10.0895203,21.6972418 9.71156333,21.8625 C9.56808787,21.9248513 9.40557644,21.9248513 9.26210098,21.8625 C8.88414398,21.6972418 0.00142508978,17.7856388 0.00142508978,12.7083753 L0.00142508978,3.30636319 C0.00255103283,3.10901228 0.0819859768,2.92037973 0.221908968,2.78278462 C0.361831959,2.64518951 0.550528331,2.57015159 0.745664708,2.57450537 C0.860948872,2.57745641 0.979151659,2.58335847 1.09881371,2.58335847 C4.43329911,2.58335847 7.50219312,1.66115862 9.10595659,0.178261246 C9.32165485,-0.0209513499 9.65200947,-0.0209513499 9.86770773,0.178261246 C11.4714712,1.66410967 14.5403652,2.58630955 17.8748506,2.58630952 C17.9915941,2.58630952 18.1127154,2.58040743 18.2279996,2.57745641 L18.2279996,2.57745641 Z" id="形状"></path>
                        </g>
                    </g>
                </g>
            </g>
        </g>
    </g>
</svg>