<?xml version="1.0" encoding="UTF-8"?>
<svg width="50px" height="50px" viewBox="0 0 50 50" version="1.1" xmlns="http://www.w3.org/2000/svg" xmlns:xlink="http://www.w3.org/1999/xlink">
    <!-- Generator: Sketch 59.1 (86144) - https://sketch.com -->
    <title>编组 19</title>
    <desc>Created with Sketch.</desc>
    <defs>
        <linearGradient x1="0%" y1="0%" x2="100%" y2="100%" id="linearGradient-1">
            <stop stop-color="#2076DA" offset="0%"></stop>
            <stop stop-color="#78B7FF" offset="100%"></stop>
        </linearGradient>
    </defs>
    <g id="电脑端1.0" stroke="none" stroke-width="1" fill="none" fill-rule="evenodd">
        <g id="控制中心" transform="translate(-1127.000000, -363.000000)">
            <g id="编组-26" transform="translate(400.000000, 350.000000)">
                <g id="编组-20" transform="translate(724.000000, 13.000000)">
                    <g id="编组-19" transform="translate(3.000000, 0.000000)">
                        <circle id="椭圆形" fill="url(#linearGradient-1)" cx="25" cy="25" r="25"></circle>
                        <g id="编组" transform="translate(14.000000, 14.000000)" fill="#FFFFFF" fill-rule="nonzero">
                            <path d="M20.9069824,14.3135986 C20.8905029,14.2992676 19.2601318,12.858374 19.2339844,10.9489502 C19.2181641,9.79443359 19.7941162,8.67192383 20.9458008,7.61269531 C21.1477295,7.42695312 21.191333,7.12492676 21.0501709,6.88967285 C19.7411377,4.70803223 19.5193115,4.27585449 19.4864502,4.20734863 C19.3808222,3.92727854 19.0790581,3.77396677 18.7905762,3.85380859 C18.766748,3.86037598 16.3862793,4.50026855 14.6315674,3.41323242 C13.6950195,2.83303223 13.0851562,1.8439209 12.8189453,0.473388672 C12.7661621,0.201660156 12.5281982,0.00546875 12.2513916,0.00546875 L8.98198242,0.00546875 C8.69929199,0.00546875 8.45830078,0.208374023 8.41188965,0.487231445 C8.40839844,0.507568359 8.04406738,2.53127441 6.45483398,3.53786621 C5.42712402,4.18876953 4.08596191,4.29069824 2.46862793,3.8407959 C2.21802993,3.77109972 1.9517386,3.87731054 1.81789551,4.1003418 C0.324560547,6.58925781 0.129174805,6.90852051 0.103808594,6.94921875 C-0.066382415,7.21023533 0.00090861516,7.55917258 0.255957031,7.73818359 C0.272216797,7.74968262 1.88327637,8.90727539 2.00871582,10.6502197 C2.09387207,11.8333252 1.48208008,13.0543213 0.190332031,14.2792725 C-0.00727539063,14.4666748 -0.0473388672,14.7665527 0.0941650391,14.9992187 L1.8456543,17.8793701 C1.9954834,18.1257812 2.30390625,18.2241211 2.56867676,18.1098389 C2.58669434,18.1020508 4.39035645,17.3412354 6.03303223,18.1271973 C7.13552246,18.6546387 7.9315918,19.775 8.39909668,21.4571045 C8.46862367,21.7073197 8.69645699,21.8804687 8.95615234,21.8804687 L12.2643799,21.8804687 C12.5416016,21.8804687 12.779541,21.6851318 12.8318604,21.412915 C12.8359619,21.3921875 13.2598633,19.330542 14.8899902,18.332959 C15.9070557,17.7105713 17.2052002,17.617749 18.7484131,18.0571045 C19.0020508,18.1294434 19.2723633,18.0207764 19.4056396,17.7932617 C20.8433594,15.3385986 20.9992432,15.0876221 21.0123535,15.0669434 C20.9969676,15.0907326 20.9797611,15.1132936 20.9608887,15.1344238 C21.0591252,15.0233009 21.11098,14.878721 21.1057617,14.7304932 C21.1001063,14.569994 21.0281261,14.4190319 20.9069824,14.3135986 L20.9069824,14.3135986 Z M19.5991432,4.33814941 C19.5767962,4.30080316 19.5425777,4.26400904 19.4968432,4.22814941 C19.5303932,4.25365791 19.5713132,4.29153242 19.5991432,4.33814941 L19.5991432,4.33814941 Z M10.5453125,15.3355469 C8.12324219,15.3355469 6.15275879,13.3650146 6.15275879,10.9429199 C6.15275879,8.52084961 8.12324219,6.55036621 10.5453125,6.55036621 C12.9673828,6.55036621 14.9378662,8.52084961 14.9378662,10.9429199 C14.9378662,13.3650146 12.9673828,15.3355469 10.5453125,15.3355469 Z" id="形状"></path>
                            <path d="M10.5453125,7.70671387 C8.76086426,7.70671387 7.30910645,9.15847168 7.30910645,10.9429199 C7.30910645,12.727417 8.76086426,14.1791992 10.5453125,14.1791992 C12.3297607,14.1791992 13.7815186,12.727417 13.7815186,10.9429199 C13.7815186,9.15847168 12.3297607,7.70671387 10.5453125,7.70671387 Z" id="路径"></path>
                        </g>
                    </g>
                </g>
            </g>
        </g>
    </g>
</svg>