<?xml version="1.0" encoding="UTF-8"?>
<svg width="396px" height="55px" viewBox="0 0 396 55" version="1.1" xmlns="http://www.w3.org/2000/svg" xmlns:xlink="http://www.w3.org/1999/xlink">
    <!-- Generator: Sketch 59.1 (86144) - https://sketch.com -->
    <title>编组 28</title>
    <desc>Created with Sketch.</desc>
    <g id="电脑端1.0" stroke="none" stroke-width="1" fill="none" fill-rule="evenodd">
        <g id="控制中心" transform="translate(-273.000000, -40.000000)" fill="#FFFFFF" fill-rule="nonzero">
            <g id="编组-28" transform="translate(273.000000, 40.000000)">
                <g id="编组-2" transform="translate(70.000000, 7.000000)">
                    <g id="编组-27">
                        <path d="M1.392,4.976 C1.344,7.256 1.104,9.416 0.72,11.48 L2.712,12.008 C3.048,9.848 3.264,7.544 3.312,5.12 L1.392,4.976 Z M5.76,15.776 L6.08831856,16.247417 C6.60178512,16.9942479 7.20872727,17.9207273 7.896,19.04 L9.384,16.832 C8.328,15.536 7.248,14.336 6.192,13.256 C6.336,12.008 6.408,10.688 6.432,9.272 L6.432,8.552 C7.584,7.808 8.592,6.944 9.504,5.96 L8.16,4.04 C7.608,4.832 7.032,5.528 6.432,6.152 L6.432,0.464 L4.08,0.464 L4.08,9.272 C4.032,14.6 2.904,18.464 0.696,20.864 L2.592,22.52 C4.08,20.84 5.136,18.608 5.76,15.776 Z M9.744,10.904 L9.744,13.064 L14.664,13.064 L14.664,14.36 L10.464,14.36 L10.464,16.472 L14.664,16.472 L14.664,17.912 L9.048,17.912 L9.048,20.12 L14.664,20.12 L14.664,22.448 L17.16,22.448 L17.16,20.12 L22.824,20.12 L22.824,17.912 L17.16,17.912 L17.16,16.472 L21.408,16.472 L21.408,14.36 L17.16,14.36 L17.16,13.064 L21.96,13.064 L21.96,10.904 L17.16,10.904 L17.16,9.488 L14.664,9.488 L14.664,10.904 L9.744,10.904 Z M13.344,0.032 C12.12,2.048 10.704,3.608 9.12,4.712 L10.632,6.584 C11.064,6.248 11.52,5.864 11.976,5.432 C12.408,5.96 12.96,6.464 13.584,6.944 C12.048,7.496 10.224,7.952 8.136,8.288 L9.336,10.496 C11.904,9.92 14.088,9.2 15.912,8.336 C17.64,9.176 19.8,9.824 22.368,10.28 L23.256,8.024 C21.408,7.736 19.776,7.352 18.384,6.896 C19.704,5.936 20.664,4.856 21.288,3.632 L21.288,1.664 L14.976,1.664 C15.192,1.328 15.408,0.944 15.624,0.56 L13.344,0.032 Z M15.96,5.864 C14.904,5.288 14.04,4.64 13.392,3.92 C13.416,3.872 13.464,3.824 13.512,3.776 L18.552,3.776 C17.904,4.544 17.04,5.24 15.96,5.864 Z M28.7011764,3.896 C27.9811764,6.992 27.1171764,9.536 26.1571764,11.552 L28.3651764,12.344 C29.3971764,10.088 30.2611764,7.496 30.9331764,4.52 L28.7011764,3.896 Z M43.1251764,3.872 C41.8771764,6.416 40.4131764,8.576 38.6851764,10.4 L40.5571764,11.744 C42.3811764,9.824 43.9651764,7.544 45.3091764,4.928 L43.1251764,3.872 Z M34.1731764,0.32 L34.1731764,8.24 C33.8371764,12.992 30.6211764,17.072 24.5491764,20.504 L26.0851764,22.52 C31.0531764,19.448 34.1971764,15.848 35.4931764,11.696 C37.1491764,16.184 40.3411764,19.76 45.0451764,22.4 L46.5811764,20.384 C40.7731764,17.288 37.4851764,13.232 36.7171764,8.24 L36.7171764,0.32 L34.1731764,0.32 Z M67.1223528,12.248 L50.5623528,12.248 L50.5623528,22.544 L53.1063528,22.544 L53.1063528,21.632 L64.5783528,21.632 L64.5783528,22.544 L67.1223528,22.544 L67.1223528,12.248 Z M53.1063528,19.232 L53.1063528,14.648 L64.5783528,14.648 L64.5783528,19.232 L53.1063528,19.232 Z M49.0503528,10.112 C55.1703528,9.896 60.7383528,9.56 65.7303528,9.104 C66.2823528,10.016 66.8343528,10.952 67.3623528,11.936 L69.8103528,10.736 C68.0823528,7.832 66.2823528,5.192 64.3623528,2.792 L62.0823528,3.872 C62.8263528,4.808 63.5703528,5.816 64.2903528,6.872 C60.5943528,7.208 56.8023528,7.472 52.9143528,7.664 C54.8823528,5.84 56.7783528,3.632 58.6263528,1.088 L56.0343528,0.176 L55.5382646,0.892970414 C52.5164988,5.2045286 50.188199,7.48553846 48.5943528,7.736 L49.0503528,10.112 Z M87.4715292,7.136 C86.1035292,11.12 83.9435292,14.408 80.9915292,17 L82.3835292,19.256 C84.9275292,16.76 86.8955292,13.736 88.2875292,10.184 L88.2875292,18.944 C88.2875292,19.664 88.0475292,20.024 87.5675292,20.024 C86.6555292,20.024 85.7195292,19.976 84.7355292,19.88 L85.2875292,22.256 L88.4315292,22.256 C89.9195292,22.256 90.6875292,21.344 90.6875292,19.568 L90.6875292,7.136 L93.1835292,7.136 L93.1835292,4.808 L90.6875292,4.808 L90.6875292,0.296 L88.2875292,0.296 L88.2875292,4.808 L82.1675292,4.808 L82.1675292,7.136 L87.4715292,7.136 Z M81.0635292,1.04 L72.0875292,1.04 L72.0875292,16.424 L74.3435292,16.424 L74.3435292,3.344 L78.8315292,3.344 L78.8315292,16.424 L81.0635292,16.424 L81.0635292,1.04 Z M75.5675292,4.76 L75.5675292,12.608 C75.4955292,14.624 75.1595292,16.256 74.5595292,17.528 C73.9355292,18.68 72.7355292,19.664 70.9595292,20.456 L72.3035292,22.568 C74.1275292,21.752 75.4715292,20.576 76.2875292,19.064 C77.1275292,17.456 77.5835292,15.296 77.6795292,12.608 L77.6795292,4.76 L75.5675292,4.76 Z M78.6155292,17.048 L77.0555292,18.584 C78.3755292,19.832 79.4075292,21.032 80.1275292,22.136 L81.8795292,20.384 C80.9915292,19.28 79.9115292,18.176 78.6155292,17.048 Z M104.436706,5.216 L104.436706,13.496 L106.572706,13.496 C106.332706,16.76 105.156706,19.088 103.092706,20.456 L104.436706,22.64 C107.124706,20.744 108.612706,17.696 108.876706,13.496 L110.388706,13.496 L110.388706,19.76 C110.388706,21.368 111.060706,22.184 112.404706,22.184 L114.372706,22.184 C115.116706,22.184 115.668706,21.968 116.052706,21.536 C116.436706,21.08 116.700706,19.664 116.868706,17.288 L114.660706,16.616 L114.631016,17.4411875 C114.584018,18.5380625 114.518206,19.223 114.420706,19.496 C114.324706,19.784 114.156706,19.928 113.964706,19.928 L113.148706,19.928 C112.836706,19.928 112.692706,19.688 112.692706,19.256 L112.692706,13.496 L115.212706,13.496 L115.212706,5.216 L112.692706,5.216 C113.388706,3.968 114.012706,2.552 114.588706,1.016 L112.188706,0.152 C111.612706,1.952 110.916706,3.632 110.124706,5.216 L107.580706,5.216 L109.116706,4.448 C108.444706,2.96 107.772706,1.616 107.076706,0.416 L105.060706,1.376 C105.732706,2.504 106.356706,3.776 106.932706,5.216 L104.436706,5.216 Z M112.932706,11.288 L106.740706,11.288 L106.740706,7.424 L112.932706,7.424 L112.932706,11.288 Z M95.1727056,6.512 L95.1727056,8.936 L98.1487056,8.936 C97.3807056,11.216 96.1567056,13.256 94.5247056,15.08 L95.6527056,18.008 C96.7327056,16.472 97.6447056,14.816 98.3887056,12.992 L98.3887056,22.328 L100.788706,22.328 L100.788706,12.728 C101.316706,13.544 101.916706,14.552 102.636706,15.8 L104.052706,13.664 C102.948706,12.344 101.868706,11.144 100.788706,10.04 L100.788706,8.936 L103.500706,8.936 L103.500706,6.512 L100.788706,6.512 L100.788706,3.44 C101.796706,3.248 102.756706,3.008 103.668706,2.768 L102.780706,0.464 C100.524706,1.16 97.9567056,1.616 95.1007056,1.856 L95.6047056,4.16 C96.5647056,4.064 97.4767056,3.944 98.3887056,3.824 L98.3887056,6.512 L95.1727056,6.512 Z M130.689882,0.344 L130.689882,3.896 L125.265882,3.896 L125.265882,6.32 L130.689882,6.32 L130.689882,10.04 L124.113882,10.04 L124.113882,12.488 L129.297882,12.488 L128.964352,13.2612666 C127.482101,16.6455648 126.252365,18.7428966 125.313882,19.592 C125.193882,19.664 125.025882,19.736 124.785882,19.808 L125.337882,21.992 C129.513882,21.584 133.377882,21.032 136.953882,20.312 L137.632257,22.013 C137.709882,22.211 137.787882,22.412 137.865882,22.616 L140.241882,21.56 C139.185882,18.824 137.961882,16.28 136.569882,13.88 L134.145882,14.696 C134.769882,15.752 135.369882,16.88 135.969882,18.128 C133.497882,18.632 131.001882,19.04 128.505882,19.328 C129.513882,17.84 130.689882,15.56 131.985882,12.488 L139.761882,12.488 L139.761882,10.04 L133.233882,10.04 L133.233882,6.32 L139.137882,6.32 L139.137882,3.896 L133.233882,3.896 L133.233882,0.344 L130.689882,0.344 Z M120.465882,0.488 L118.665882,2.216 C120.369882,3.512 121.689882,4.712 122.601882,5.84 L124.377882,4.04 C123.297882,2.864 122.001882,1.688 120.465882,0.488 Z M119.865882,6.104 L118.089882,7.832 C119.649882,9.152 120.849882,10.376 121.689882,11.48 L123.489882,9.704 C122.481882,8.504 121.281882,7.304 119.865882,6.104 Z M122.025882,12.896 C120.993882,15.728 119.769882,18.512 118.353882,21.2 L120.873882,22.304 C122.121882,19.664 123.273882,16.832 124.305882,13.832 L122.025882,12.896 Z M151.615058,0.224 C148.831058,3.392 145.351058,6.056 141.151058,8.192 L142.495058,10.64 C143.791058,9.92 145.015058,9.152 146.167058,8.36 L146.167058,10.04 L158.887058,10.04 L158.887058,8.384 C159.991058,9.176 161.191058,9.92 162.463058,10.592 L163.831058,8.168 C159.895058,6.248 156.439058,3.584 153.439058,0.224 L151.615058,0.224 Z M147.199058,7.616 C149.239058,6.08 151.015058,4.376 152.527058,2.504 C154.087058,4.4 155.863058,6.104 157.831058,7.616 L147.199058,7.616 Z M160.447058,12.392 L144.607058,12.392 L144.607058,22.472 L147.031058,22.472 L147.031058,21.248 L158.023058,21.248 L158.023058,22.472 L160.447058,22.472 L160.447058,12.392 Z M147.031058,18.872 L147.031058,14.744 L158.023058,14.744 L158.023058,18.872 L147.031058,18.872 Z M165.532235,3.416 L165.532235,5.816 L168.748235,5.816 L168.748235,9.032 L165.220235,9.032 L165.220235,11.432 L168.628235,11.432 C168.292235,15.656 167.068235,18.824 164.980235,20.936 L166.852235,22.592 C168.628235,20.792 169.876235,18.32 170.596235,15.152 L170.964329,15.5857041 C171.664164,16.424568 172.501466,17.504 173.476235,18.824 L174.868235,16.688 C173.572235,15.248 172.276235,13.952 170.980235,12.8 L171.124235,11.432 L174.460235,11.432 L174.460235,9.032 L171.244235,9.032 L171.244235,5.816 L174.124235,5.816 L174.124235,3.416 L171.244235,3.416 L171.244235,0.416 L168.748235,0.416 L168.748235,3.416 L165.532235,3.416 Z M185.524235,1.088 L175.036235,1.088 L175.036235,14.624 L177.460235,14.624 L177.460235,3.392 L183.100235,3.392 L183.100235,14.624 L185.524235,14.624 L185.524235,1.088 Z M184.564235,22.136 C185.332235,22.136 185.908235,21.944 186.292235,21.584 C186.676235,21.176 186.964235,19.928 187.132235,17.84 L184.972235,17.144 L184.950475,17.6522738 C184.897781,18.69024 184.809035,19.3184 184.684235,19.568 C184.564235,19.808 184.396235,19.928 184.156235,19.928 L183.124235,19.928 C182.740235,19.928 182.572235,19.736 182.572235,19.376 L182.572235,14.6 L180.748235,14.6 C181.132235,13.088 181.372235,11.36 181.420235,9.392 L181.420235,4.904 L179.140235,4.904 L179.140235,9.392 C179.044235,12.224 178.516235,14.552 177.604235,16.328 C176.692235,17.984 174.892235,19.376 172.252235,20.48 L173.548235,22.568 C176.236235,21.488 178.204235,19.952 179.404235,17.96 C179.740235,17.384 180.028235,16.736 180.292235,16.04 L180.292235,19.88 C180.292235,21.368 180.988235,22.136 182.404235,22.136 L184.564235,22.136 Z M193.921411,2.864 L187.369411,20 L190.369411,20 L191.929411,15.704 L199.105411,15.704 L200.665411,20 L203.665411,20 L197.113411,2.864 L193.921411,2.864 Z M192.769411,13.4 L195.481411,5.888 L195.577411,5.888 L198.265411,13.4 L192.769411,13.4 Z M204.766588,2.864 L204.766588,20 L207.574588,20 L207.574588,2.864 L204.766588,2.864 Z M210.043764,6.32 L210.043764,8.768 L218.707764,8.768 C217.411764,14.264 214.339764,18.2 209.491764,20.552 L211.099764,22.664 C215.899764,20.144 219.115764,16.208 220.747764,10.856 C222.571764,15.8 225.763764,19.664 230.275764,22.448 L231.859764,20.384 C227.179764,17.648 223.987764,13.784 222.259764,8.768 L231.307764,8.768 L231.307764,6.32 L221.683764,6.32 C221.851764,4.928 221.947764,3.44 221.947764,1.88 L221.947764,0.296 L219.403764,0.296 L219.403764,2.456 C219.379764,3.8 219.283764,5.072 219.139764,6.32 L210.043764,6.32 Z M248.17694,6.104 L251.10494,6.104 C251.00894,8.816 250.60094,11.24 249.88094,13.352 C249.08894,11.552 248.44094,9.464 247.91294,7.088 C248.00894,6.752 248.08094,6.44 248.17694,6.104 Z M248.72894,15.92 C247.69694,17.768 246.30494,19.256 244.57694,20.408 L245.87294,22.52 C247.50494,21.344 248.89694,19.904 250.02494,18.224 C251.15294,20 252.47294,21.44 253.96094,22.544 L255.35294,20.504 C253.76894,19.424 252.40094,17.912 251.24894,15.992 C252.52094,13.256 253.21694,9.968 253.36094,6.104 L254.68094,6.104 L254.68094,3.68 L248.68094,3.68 C248.84894,2.744 248.99294,1.76 249.13694,0.704 L246.68894,0.272 C246.23294,4.688 245.34494,8.216 244.02494,10.856 L245.58494,12.8 C245.96894,12.128 246.35294,11.384 246.71294,10.592 C247.28894,12.56 247.96094,14.336 248.72894,15.92 Z M237.37694,11.408 C237.23294,11.84 237.06494,12.272 236.89694,12.752 L233.56094,12.752 L233.56094,14.888 L235.93694,14.888 C235.50494,15.776 235.00094,16.712 234.42494,17.672 C235.48094,18.08 236.51294,18.488 237.47294,18.896 C236.20094,19.472 234.71294,19.976 232.98494,20.36 L234.13694,22.448 C236.51294,21.824 238.48094,21.032 240.06494,20.024 C241.36094,20.624 242.46494,21.2 243.37694,21.752 L244.72094,19.784 C243.83294,19.304 242.92094,18.872 241.98494,18.464 C243.04094,17.408 243.76094,16.16 244.16894,14.768 L244.16894,12.752 L239.34494,12.752 L239.592052,12.0551111 C239.635607,11.936 239.68094,11.816 239.72894,11.696 L237.37694,11.408 Z M239.72894,17.528 C238.96094,17.216 238.19294,16.928 237.42494,16.688 C237.76094,16.112 238.09694,15.512 238.40894,14.888 L241.96094,14.888 C241.45694,15.872 240.71294,16.76 239.72894,17.528 Z M235.91294,0.632 L233.96894,1.256 C234.49694,2.144 235.00094,3.152 235.48094,4.304 L237.25694,3.512 C236.87294,2.48 236.41694,1.52 235.91294,0.632 Z M242.65694,0.608 C242.22494,1.568 241.60094,2.528 240.83294,3.512 L242.58494,4.4 C243.32894,3.44 243.92894,2.456 244.40894,1.448 L242.65694,0.608 Z M233.60894,4.664 L233.60894,6.848 L236.46494,6.848 C235.74494,7.904 234.59294,8.864 233.03294,9.752 L234.28094,11.768 C236.00894,10.52 237.25694,9.104 238.07294,7.472 L238.07294,11.24 L240.37694,11.24 L240.37694,8.72 L240.849829,9.04888889 C241.43057,9.46162963 242.11294,9.976 242.89694,10.592 L244.19294,8.624 C242.89694,7.976 241.62494,7.4 240.37694,6.896 L240.37694,6.848 L244.45694,6.848 L244.45694,4.664 L240.37694,4.664 L240.37694,0.32 L238.07294,0.32 L238.07294,4.664 L233.60894,4.664 Z M259.478117,22.28 C261.062117,22.28 261.854117,21.44 261.854117,19.808 L261.854117,13.304 L263.798117,12.344 L263.798117,12.344 L263.798117,9.896 C263.174117,10.232 262.526117,10.544 261.854117,10.856 L261.854117,7.04 L263.894117,7.04 L263.894117,4.616 L261.854117,4.616 L261.854117,0.368 L259.406117,0.368 L259.406117,4.616 L256.814117,4.616 L256.814117,7.04 L259.406117,7.04 L259.406117,11.84 C258.398117,12.176 257.366117,12.464 256.334117,12.704 L256.982117,15.176 C257.798117,14.912 258.590117,14.624 259.406117,14.336 L259.406117,19.184 C259.406117,19.784 259.142117,20.096 258.638117,20.096 C258.086117,20.096 257.510117,20.024 256.910117,19.928 L257.438117,22.28 L259.478117,22.28 Z M267.062117,11.936 L271.142117,11.936 L271.142117,14.24 L267.374117,14.24 L267.374117,22.496 L269.678117,22.496 L269.678117,21.512 L275.078117,21.512 L275.078117,22.496 L277.382117,22.496 L277.382117,14.24 L273.590117,14.24 L273.590117,11.936 L278.438117,11.936 L278.438117,9.656 L273.590117,9.656 L273.590117,7.4 L277.910117,7.4 L277.910117,1.04 L264.758117,1.04 L264.758117,9.008 C264.734117,13.808 263.942117,17.744 262.382117,20.792 L264.350117,22.544 C265.862117,19.472 266.774117,15.944 267.062117,11.936 Z M271.142117,7.4 L271.142117,9.656 L267.158117,9.656 L267.182117,9.008 L267.182117,9.008 L267.182117,7.4 L271.142117,7.4 Z M269.678117,19.304 L269.678117,16.448 L275.078117,16.448 L275.078117,19.304 L269.678117,19.304 Z M275.462117,3.32 L275.462117,5.192 L267.182117,5.192 L267.182117,3.32 L275.462117,3.32 Z M281.171293,1.136 L281.171293,3.584 L289.571293,3.584 L289.571293,11.84 L280.211293,11.84 L280.211293,14.264 L289.571293,14.264 L289.571293,22.472 L292.115293,22.472 L292.115293,14.264 L301.667293,14.264 L301.667293,11.84 L292.115293,11.84 L292.115293,3.584 L300.779293,3.584 L300.779293,1.136 L281.171293,1.136 Z M284.699293,4.544 L282.371293,5.672 C283.235293,7.256 284.075293,9.056 284.843293,11.048 L287.195293,9.896 C286.379293,7.928 285.563293,6.152 284.699293,4.544 Z M297.395293,4.448 C296.747293,6.2 295.883293,7.976 294.779293,9.752 L297.035293,10.904 C298.115293,9.176 299.003293,7.376 299.675293,5.528 L297.395293,4.448 Z M322.64047,12.248 L306.08047,12.248 L306.08047,22.544 L308.62447,22.544 L308.62447,21.632 L320.09647,21.632 L320.09647,22.544 L322.64047,22.544 L322.64047,12.248 Z M308.62447,19.232 L308.62447,14.648 L320.09647,14.648 L320.09647,19.232 L308.62447,19.232 Z M304.56847,10.112 L304.11247,7.736 C305.79247,7.472 308.28847,4.952 311.55247,0.176 L314.14447,1.088 C312.29647,3.632 310.40047,5.84 308.43247,7.664 C312.32047,7.472 316.11247,7.208 319.80847,6.872 C319.08847,5.816 318.34447,4.808 317.60047,3.872 L319.88047,2.792 C321.80047,5.192 323.60047,7.832 325.32847,10.736 L322.88047,11.936 C322.35247,10.952 321.80047,10.016 321.24847,9.104 C316.25647,9.56 310.68847,9.896 304.56847,10.112 Z" id="烽火台财税法合规AI大数据平台"></path>
                        <path d="M0.864,34.432 L0.864,43 L1.848,43 L1.848,39.016 L6.348,39.016 L6.348,38.164 L1.848,38.164 L1.848,35.284 L6.6,35.284 L6.6,34.432 L0.864,34.432 Z M9.460727,34.432 L9.460727,43 L10.444727,43 L10.444727,39.004 L15.400727,39.004 L15.400727,43 L16.384727,43 L16.384727,34.432 L15.400727,34.432 L15.400727,38.152 L10.444727,38.152 L10.444727,34.432 L9.460727,34.432 Z M19.113454,34.432 L19.113454,35.284 L22.137454,35.284 L22.137454,43 L23.109454,43 L23.109454,35.284 L26.133454,35.284 L26.133454,34.432 L19.113454,34.432 Z M34.542908,34.432 L34.542908,43 L35.526908,43 L35.526908,39.016 L40.026908,39.016 L40.026908,38.164 L35.526908,38.164 L35.526908,35.284 L40.278908,35.284 L40.278908,34.432 L34.542908,34.432 Z M43.811635,34.456 C43.607635,34.456 43.439635,34.516 43.295635,34.66 C43.151635,34.78 43.091635,34.948 43.091635,35.164 C43.091635,35.368 43.151635,35.536 43.295635,35.68 C43.439635,35.812 43.607635,35.884 43.811635,35.884 C44.015635,35.884 44.183635,35.812 44.327635,35.68 C44.471635,35.536 44.543635,35.368 44.543635,35.164 C44.543635,34.948 44.471635,34.78 44.327635,34.66 C44.183635,34.516 44.015635,34.456 43.811635,34.456 Z M43.331635,36.796 L43.331635,43 L44.291635,43 L44.291635,36.796 L43.331635,36.796 Z M49.960362,36.628 C49.264362,36.628 48.688362,36.784 48.256362,37.096 C47.788362,37.408 47.560362,37.816 47.560362,38.344 C47.560362,38.872 47.788362,39.268 48.268362,39.556 C48.524362,39.7266667 48.9605101,39.8878519 49.5683785,40.0479835 L50.2184525,40.2146667 C50.6618435,40.3328889 50.9656953,40.4293333 51.124362,40.504 C51.508362,40.696 51.712362,40.96 51.712362,41.308 C51.712362,42.004 51.148362,42.364 50.044362,42.364 C49.516362,42.364 49.120362,42.268 48.856362,42.076 C48.592362,41.86 48.412362,41.512 48.340362,41.02 L47.404362,41.02 C47.548362,42.448 48.436362,43.168 50.068362,43.168 C51.820362,43.168 52.696362,42.52 52.696362,41.248 C52.696362,40.708 52.444362,40.288 51.952362,39.976 C51.628362,39.772 51.100362,39.58 50.356362,39.4 L49.9689381,39.2932016 C49.5504361,39.1745185 49.2496953,39.076 49.072362,38.992 C48.712362,38.812 48.544362,38.584 48.544362,38.32 C48.544362,38.044 48.676362,37.828 48.940362,37.672 C49.180362,37.504 49.516362,37.432 49.948362,37.432 C50.440362,37.432 50.824362,37.528 51.088362,37.72 C51.328362,37.888 51.484362,38.176 51.568362,38.56 L52.504362,38.56 C52.336362,37.264 51.496362,36.628 49.960362,36.628 Z M58.173089,36.628 C57.249089,36.628 56.517089,36.952 55.989089,37.612 C55.497089,38.212 55.257089,38.98 55.257089,39.928 C55.257089,40.876 55.497089,41.644 55.989089,42.232 C56.505089,42.856 57.225089,43.168 58.161089,43.168 C58.929089,43.168 59.541089,42.964 60.009089,42.568 C60.489089,42.16 60.789089,41.548 60.933089,40.756 L59.973089,40.756 C59.829089,41.824 59.217089,42.364 58.161089,42.364 C57.537089,42.364 57.057089,42.136 56.733089,41.704 C56.397089,41.272 56.241089,40.672 56.241089,39.916 C56.241089,39.16 56.409089,38.56 56.745089,38.116 C57.093089,37.66 57.573089,37.432 58.173089,37.432 C58.665089,37.432 59.061089,37.54 59.373089,37.78 C59.673089,38.02 59.865089,38.38 59.949089,38.86 L60.897089,38.86 C60.789089,38.104 60.501089,37.54 60.021089,37.168 C59.553089,36.808 58.941089,36.628 58.173089,36.628 Z M66.433816,36.628 C65.689816,36.628 65.101816,36.772 64.645816,37.06 C64.141816,37.372 63.817816,37.864 63.685816,38.512 L64.633816,38.584 C64.729816,38.188 64.933816,37.888 65.257816,37.696 C65.545816,37.504 65.917816,37.42 66.373816,37.42 C67.453816,37.42 67.993816,37.936 67.993816,38.98 L67.993816,39.304 L66.505816,39.328 C65.569816,39.34 64.849816,39.52 64.345816,39.856 C63.769816,40.216 63.493816,40.744 63.493816,41.452 C63.493816,41.956 63.685816,42.376 64.069816,42.7 C64.441816,43.012 64.933816,43.168 65.557816,43.168 C66.133816,43.168 66.649816,43.036 67.105816,42.784 C67.489816,42.568 67.813816,42.292 68.053816,41.956 L68.053816,43 L68.953816,43 L68.953816,39.016 C68.953816,38.296 68.761816,37.732 68.401816,37.324 C67.969816,36.856 67.321816,36.628 66.433816,36.628 Z M67.993816,40.024 L67.993816,40.552 C67.993816,41.032 67.765816,41.464 67.321816,41.836 C66.865816,42.22 66.349816,42.412 65.761816,42.412 C65.377816,42.412 65.065816,42.316 64.825816,42.136 C64.585816,41.944 64.477816,41.716 64.477816,41.428 C64.477816,40.528 65.173816,40.072 66.565816,40.048 L67.993816,40.024 Z M72.306543,34.264 L72.306543,43 L73.254543,43 L73.254543,34.264 L72.306543,34.264 Z M84.975997,36.628 C84.231997,36.628 83.643997,36.772 83.187997,37.06 C82.683997,37.372 82.359997,37.864 82.227997,38.512 L83.175997,38.584 C83.271997,38.188 83.475997,37.888 83.799997,37.696 C84.087997,37.504 84.459997,37.42 84.915997,37.42 C85.995997,37.42 86.535997,37.936 86.535997,38.98 L86.535997,39.304 L85.047997,39.328 C84.111997,39.34 83.391997,39.52 82.887997,39.856 C82.311997,40.216 82.035997,40.744 82.035997,41.452 C82.035997,41.956 82.227997,42.376 82.611997,42.7 C82.983997,43.012 83.475997,43.168 84.099997,43.168 C84.675997,43.168 85.191997,43.036 85.647997,42.784 C86.031997,42.568 86.355997,42.292 86.595997,41.956 L86.595997,43 L87.495997,43 L87.495997,39.016 C87.495997,38.296 87.303997,37.732 86.943997,37.324 C86.511997,36.856 85.863997,36.628 84.975997,36.628 Z M86.535997,40.024 L86.535997,40.552 C86.535997,41.032 86.307997,41.464 85.863997,41.836 C85.407997,42.22 84.891997,42.412 84.303997,42.412 C83.919997,42.412 83.607997,42.316 83.367997,42.136 C83.127997,41.944 83.019997,41.716 83.019997,41.428 C83.019997,40.528 83.715997,40.072 85.107997,40.048 L86.535997,40.024 Z M93.560724,36.628 C93.152724,36.628 92.780724,36.724 92.444724,36.916 C92.108724,37.096 91.832724,37.36 91.616724,37.708 L91.616724,36.796 L90.656724,36.796 L90.656724,43 L91.616724,43 L91.616724,39.256 C91.652724,38.692 91.832724,38.248 92.168724,37.912 C92.480724,37.6 92.852724,37.444 93.284724,37.444 C94.364724,37.444 94.916724,38.044 94.916724,39.256 L94.916724,43 L95.876724,43 L95.876724,39.184 C95.876724,37.48 95.096724,36.628 93.560724,36.628 Z M103.621451,34.264 L103.621451,37.936 C103.141451,37.06 102.457451,36.628 101.569451,36.628 C100.681451,36.628 99.997451,36.952 99.493451,37.624 C99.025451,38.224 98.797451,38.968 98.797451,39.88 C98.797451,40.816 99.025451,41.584 99.493451,42.184 C99.997451,42.832 100.705451,43.168 101.617451,43.168 C102.553451,43.168 103.249451,42.772 103.681451,41.98 L103.681451,43 L104.581451,43 L104.581451,34.264 L103.621451,34.264 Z M101.773451,37.42 C102.325451,37.42 102.781451,37.636 103.129451,38.092 C103.465451,38.536 103.645451,39.124 103.645451,39.844 L103.645451,39.964 C103.645451,40.66 103.489451,41.224 103.189451,41.656 C102.841451,42.136 102.361451,42.376 101.737451,42.376 C101.065451,42.376 100.561451,42.124 100.225451,41.644 C99.925451,41.212 99.781451,40.624 99.781451,39.88 C99.781451,39.136 99.925451,38.56 100.237451,38.14 C100.573451,37.66 101.089451,37.42 101.773451,37.42 Z M112.870905,34.432 L112.870905,35.284 L115.894905,35.284 L115.894905,43 L116.866905,43 L116.866905,35.284 L119.890905,35.284 L119.890905,34.432 L112.870905,34.432 Z M125.211632,36.628 C124.467632,36.628 123.879632,36.772 123.423632,37.06 C122.919632,37.372 122.595632,37.864 122.463632,38.512 L123.411632,38.584 C123.507632,38.188 123.711632,37.888 124.035632,37.696 C124.323632,37.504 124.695632,37.42 125.151632,37.42 C126.231632,37.42 126.771632,37.936 126.771632,38.98 L126.771632,39.304 L125.283632,39.328 C124.347632,39.34 123.627632,39.52 123.123632,39.856 C122.547632,40.216 122.271632,40.744 122.271632,41.452 C122.271632,41.956 122.463632,42.376 122.847632,42.7 C123.219632,43.012 123.711632,43.168 124.335632,43.168 C124.911632,43.168 125.427632,43.036 125.883632,42.784 C126.267632,42.568 126.591632,42.292 126.831632,41.956 L126.831632,43 L127.731632,43 L127.731632,39.016 C127.731632,38.296 127.539632,37.732 127.179632,37.324 C126.747632,36.856 126.099632,36.628 125.211632,36.628 Z M126.771632,40.024 L126.771632,40.552 C126.771632,41.032 126.543632,41.464 126.099632,41.836 C125.643632,42.22 125.127632,42.412 124.539632,42.412 C124.155632,42.412 123.843632,42.316 123.603632,42.136 C123.363632,41.944 123.255632,41.716 123.255632,41.428 C123.255632,40.528 123.951632,40.072 125.343632,40.048 L126.771632,40.024 Z M130.472359,36.796 L132.668359,39.712 L130.208359,43 L131.348359,43 L133.208359,40.42 L135.056359,43 L136.196359,43 L133.736359,39.712 L135.932359,36.796 L134.804359,36.796 L133.208359,39.004 L131.600359,36.796 L130.472359,36.796 Z M144.461813,34.432 L144.461813,43 L150.389813,43 L150.389813,42.148 L145.433813,42.148 L145.433813,34.432 L144.461813,34.432 Z M155.77054,36.628 C155.02654,36.628 154.43854,36.772 153.98254,37.06 C153.47854,37.372 153.15454,37.864 153.02254,38.512 L153.97054,38.584 C154.06654,38.188 154.27054,37.888 154.59454,37.696 C154.88254,37.504 155.25454,37.42 155.71054,37.42 C156.79054,37.42 157.33054,37.936 157.33054,38.98 L157.33054,39.304 L155.84254,39.328 C154.90654,39.34 154.18654,39.52 153.68254,39.856 C153.10654,40.216 152.83054,40.744 152.83054,41.452 C152.83054,41.956 153.02254,42.376 153.40654,42.7 C153.77854,43.012 154.27054,43.168 154.89454,43.168 C155.47054,43.168 155.98654,43.036 156.44254,42.784 C156.82654,42.568 157.15054,42.292 157.39054,41.956 L157.39054,43 L158.29054,43 L158.29054,39.016 C158.29054,38.296 158.09854,37.732 157.73854,37.324 C157.30654,36.856 156.65854,36.628 155.77054,36.628 Z M157.33054,40.024 L157.33054,40.552 C157.33054,41.032 157.10254,41.464 156.65854,41.836 C156.20254,42.22 155.68654,42.412 155.09854,42.412 C154.71454,42.412 154.40254,42.316 154.16254,42.136 C153.92254,41.944 153.81454,41.716 153.81454,41.428 C153.81454,40.528 154.51054,40.072 155.90254,40.048 L157.33054,40.024 Z M160.767267,36.796 L162.879267,43 L163.779267,43 L165.243267,38.008 L166.683267,43 L167.595267,43 L169.707267,36.796 L168.651267,36.796 L167.127267,41.824 L165.687267,36.796 L164.787267,36.796 L163.347267,41.824 L161.823267,36.796 L160.767267,36.796 Z M180.480721,34.432 L177.108721,43 L178.164721,43 L179.076721,40.6 L183.012721,40.6 L183.924721,43 L184.992721,43 L181.620721,34.432 L180.480721,34.432 Z M179.388721,39.772 L181.032721,35.488 L181.080721,35.488 L182.700721,39.772 L179.388721,39.772 Z M187.601448,34.432 L187.601448,43 L188.573448,43 L188.573448,34.432 L187.601448,34.432 Z M197.714902,34.432 L197.714902,43 L201.518902,43 C202.394902,43 203.090902,42.82 203.594902,42.484 C204.182902,42.076 204.482902,41.452 204.482902,40.612 C204.482902,40.036 204.314902,39.58 204.002902,39.22 C203.690902,38.86 203.258902,38.62 202.694902,38.524 C203.126902,38.38 203.474902,38.152 203.738902,37.84 C203.990902,37.492 204.122902,37.072 204.122902,36.592 C204.122902,35.92 203.894902,35.392 203.438902,35.008 C202.970902,34.624 202.334902,34.432 201.542902,34.432 L197.714902,34.432 Z M198.698902,35.26 L201.314902,35.26 C201.914902,35.26 202.370902,35.368 202.682902,35.608 C202.994902,35.848 203.150902,36.208 203.150902,36.688 C203.150902,37.18 202.982902,37.552 202.670902,37.804 C202.358902,38.044 201.902902,38.176 201.302902,38.176 L198.698902,38.176 L198.698902,35.26 Z M198.698902,38.992 L201.434902,38.992 C202.094902,38.992 202.598902,39.112 202.946902,39.376 C203.306902,39.64 203.498902,40.048 203.498902,40.6 C203.498902,41.152 203.282902,41.572 202.862902,41.836 C202.502902,42.052 202.034902,42.172 201.434902,42.172 L198.698902,42.172 L198.698902,38.992 Z M208.183629,34.456 C207.979629,34.456 207.811629,34.516 207.667629,34.66 C207.523629,34.78 207.463629,34.948 207.463629,35.164 C207.463629,35.368 207.523629,35.536 207.667629,35.68 C207.811629,35.812 207.979629,35.884 208.183629,35.884 C208.387629,35.884 208.555629,35.812 208.699629,35.68 C208.843629,35.536 208.915629,35.368 208.915629,35.164 C208.915629,34.948 208.843629,34.78 208.699629,34.66 C208.555629,34.516 208.387629,34.456 208.183629,34.456 Z M207.703629,36.796 L207.703629,43 L208.663629,43 L208.663629,36.796 L207.703629,36.796 Z M214.692356,36.628 C213.828356,36.628 213.144356,36.928 212.640356,37.54 C212.136356,38.116 211.896356,38.848 211.896356,39.76 C211.896356,40.66 212.136356,41.392 212.640356,41.968 C213.144356,42.556 213.828356,42.856 214.692356,42.856 C215.628356,42.856 216.324356,42.436 216.780356,41.608 L216.780356,42.7 C216.780356,44.068 216.156356,44.764 214.908356,44.764 C214.344356,44.764 213.924356,44.656 213.648356,44.452 C213.372356,44.26 213.192356,43.948 213.120356,43.528 L212.160356,43.528 C212.268356,44.2 212.544356,44.704 212.988356,45.04 C213.420356,45.376 214.068356,45.544 214.908356,45.544 C216.792356,45.544 217.740356,44.548 217.740356,42.568 L217.740356,36.796 L216.780356,36.796 L216.780356,37.864 C216.324356,37.036 215.628356,36.628 214.692356,36.628 Z M214.836356,37.42 C215.448356,37.42 215.928356,37.636 216.288356,38.092 C216.624356,38.5 216.792356,39.064 216.792356,39.76 C216.792356,40.432 216.624356,40.984 216.288356,41.404 C215.928356,41.836 215.448356,42.052 214.824356,42.052 C214.152356,42.052 213.660356,41.812 213.324356,41.356 C213.024356,40.948 212.880356,40.408 212.880356,39.76 C212.880356,39.064 213.048356,38.5 213.384356,38.092 C213.732356,37.636 214.212356,37.42 214.836356,37.42 Z M226.68981,34.432 L226.68981,43 L229.66581,43 C231.00981,43 232.04181,42.604 232.76181,41.824 C233.44581,41.08 233.79381,40.036 233.79381,38.716 C233.79381,37.372 233.46981,36.328 232.83381,35.608 C232.13781,34.816 231.11781,34.432 229.76181,34.432 L226.68981,34.432 Z M227.67381,35.284 L229.60581,35.284 C230.73381,35.284 231.54981,35.572 232.07781,36.16 C232.56981,36.712 232.82181,37.564 232.82181,38.716 C232.82181,39.832 232.54581,40.684 232.01781,41.26 C231.45381,41.848 230.61381,42.148 229.49781,42.148 L227.67381,42.148 L227.67381,35.284 Z M239.414537,36.628 C238.670537,36.628 238.082537,36.772 237.626537,37.06 C237.122537,37.372 236.798537,37.864 236.666537,38.512 L237.614537,38.584 C237.710537,38.188 237.914537,37.888 238.238537,37.696 C238.526537,37.504 238.898537,37.42 239.354537,37.42 C240.434537,37.42 240.974537,37.936 240.974537,38.98 L240.974537,39.304 L239.486537,39.328 C238.550537,39.34 237.830537,39.52 237.326537,39.856 C236.750537,40.216 236.474537,40.744 236.474537,41.452 C236.474537,41.956 236.666537,42.376 237.050537,42.7 C237.422537,43.012 237.914537,43.168 238.538537,43.168 C239.114537,43.168 239.630537,43.036 240.086537,42.784 C240.470537,42.568 240.794537,42.292 241.034537,41.956 L241.034537,43 L241.934537,43 L241.934537,39.016 C241.934537,38.296 241.742537,37.732 241.382537,37.324 C240.950537,36.856 240.302537,36.628 239.414537,36.628 Z M240.974537,40.024 L240.974537,40.552 C240.974537,41.032 240.746537,41.464 240.302537,41.836 C239.846537,42.22 239.330537,42.412 238.742537,42.412 C238.358537,42.412 238.046537,42.316 237.806537,42.136 C237.566537,41.944 237.458537,41.716 237.458537,41.428 C237.458537,40.528 238.154537,40.072 239.546537,40.048 L240.974537,40.024 Z M246.751264,34.792 L245.803264,35.188 L245.803264,36.796 L244.555264,36.796 L244.555264,37.6 L245.803264,37.6 L245.803264,41.548 C245.803264,42.016 245.899264,42.364 246.103264,42.604 C246.319264,42.868 246.691264,43 247.195264,43 L248.131264,43 L248.131264,42.196 L247.339264,42.196 C247.123264,42.196 246.967264,42.136 246.883264,42.04 C246.787264,41.944 246.751264,41.776 246.751264,41.548 L246.751264,37.6 L248.287264,37.6 L248.287264,36.796 L246.751264,36.796 L246.751264,34.792 Z M253.727991,36.628 C252.983991,36.628 252.395991,36.772 251.939991,37.06 C251.435991,37.372 251.111991,37.864 250.979991,38.512 L251.927991,38.584 C252.023991,38.188 252.227991,37.888 252.551991,37.696 C252.839991,37.504 253.211991,37.42 253.667991,37.42 C254.747991,37.42 255.287991,37.936 255.287991,38.98 L255.287991,39.304 L253.799991,39.328 C252.863991,39.34 252.143991,39.52 251.639991,39.856 C251.063991,40.216 250.787991,40.744 250.787991,41.452 C250.787991,41.956 250.979991,42.376 251.363991,42.7 C251.735991,43.012 252.227991,43.168 252.851991,43.168 C253.427991,43.168 253.943991,43.036 254.399991,42.784 C254.783991,42.568 255.107991,42.292 255.347991,41.956 L255.347991,43 L256.247991,43 L256.247991,39.016 C256.247991,38.296 256.055991,37.732 255.695991,37.324 C255.263991,36.856 254.615991,36.628 253.727991,36.628 Z M255.287991,40.024 L255.287991,40.552 C255.287991,41.032 255.059991,41.464 254.615991,41.836 C254.159991,42.22 253.643991,42.412 253.055991,42.412 C252.671991,42.412 252.359991,42.316 252.119991,42.136 C251.879991,41.944 251.771991,41.716 251.771991,41.428 C251.771991,40.528 252.467991,40.072 253.859991,40.048 L255.287991,40.024 Z M265.197445,34.432 L265.197445,43 L266.181445,43 L266.181445,39.496 L268.689445,39.496 C270.657445,39.496 271.653445,38.644 271.653445,36.952 C271.653445,35.272 270.669445,34.432 268.701445,34.432 L265.197445,34.432 Z M266.181445,35.284 L268.641445,35.284 C269.325445,35.284 269.829445,35.416 270.165445,35.704 C270.501445,35.956 270.669445,36.376 270.669445,36.952 C270.669445,37.528 270.501445,37.948 270.177445,38.224 C269.841445,38.5 269.337445,38.644 268.641445,38.644 L266.181445,38.644 L266.181445,35.284 Z M274.646172,34.264 L274.646172,43 L275.594172,43 L275.594172,34.264 L274.646172,34.264 Z M281.646899,36.628 C280.902899,36.628 280.314899,36.772 279.858899,37.06 C279.354899,37.372 279.030899,37.864 278.898899,38.512 L279.846899,38.584 C279.942899,38.188 280.146899,37.888 280.470899,37.696 C280.758899,37.504 281.130899,37.42 281.586899,37.42 C282.666899,37.42 283.206899,37.936 283.206899,38.98 L283.206899,39.304 L281.718899,39.328 C280.782899,39.34 280.062899,39.52 279.558899,39.856 C278.982899,40.216 278.706899,40.744 278.706899,41.452 C278.706899,41.956 278.898899,42.376 279.282899,42.7 C279.654899,43.012 280.146899,43.168 280.770899,43.168 C281.346899,43.168 281.862899,43.036 282.318899,42.784 C282.702899,42.568 283.026899,42.292 283.266899,41.956 L283.266899,43 L284.166899,43 L284.166899,39.016 C284.166899,38.296 283.974899,37.732 283.614899,37.324 C283.182899,36.856 282.534899,36.628 281.646899,36.628 Z M283.206899,40.024 L283.206899,40.552 C283.206899,41.032 282.978899,41.464 282.534899,41.836 C282.078899,42.22 281.562899,42.412 280.974899,42.412 C280.590899,42.412 280.278899,42.316 280.038899,42.136 C279.798899,41.944 279.690899,41.716 279.690899,41.428 C279.690899,40.528 280.386899,40.072 281.778899,40.048 L283.206899,40.024 Z M288.983626,34.792 L288.035626,35.188 L288.035626,36.796 L286.787626,36.796 L286.787626,37.6 L288.035626,37.6 L288.035626,41.548 C288.035626,42.016 288.131626,42.364 288.335626,42.604 C288.551626,42.868 288.923626,43 289.427626,43 L290.363626,43 L290.363626,42.196 L289.571626,42.196 C289.355626,42.196 289.199626,42.136 289.115626,42.04 C289.019626,41.944 288.983626,41.776 288.983626,41.548 L288.983626,37.6 L290.519626,37.6 L290.519626,36.796 L288.983626,36.796 L288.983626,34.792 Z M295.744353,34.432 C295.216353,34.432 294.808353,34.576 294.532353,34.876 C294.268353,35.164 294.136353,35.56 294.136353,36.088 L294.136353,36.796 L292.576353,36.796 L292.576353,37.6 L294.136353,37.6 L294.136353,43 L295.096353,43 L295.096353,37.6 L296.848353,37.6 L296.848353,36.796 L295.096353,36.796 L295.096353,36.112 C295.096353,35.812 295.156353,35.596 295.276353,35.464 C295.396353,35.32 295.600353,35.26 295.864353,35.26 L296.932353,35.26 L296.932353,34.432 L295.744353,34.432 Z M302.18108,36.628 C301.24508,36.628 300.51308,36.94 299.96108,37.588 C299.43308,38.2 299.16908,38.968 299.16908,39.904 C299.16908,40.828 299.43308,41.596 299.96108,42.196 C300.51308,42.844 301.24508,43.168 302.18108,43.168 C303.10508,43.168 303.84908,42.844 304.41308,42.196 C304.92908,41.596 305.19308,40.828 305.19308,39.904 C305.19308,38.968 304.92908,38.2 304.40108,37.588 C303.84908,36.94 303.10508,36.628 302.18108,36.628 Z M302.18108,37.432 C302.82908,37.432 303.34508,37.684 303.72908,38.188 C304.05308,38.644 304.22108,39.208 304.22108,39.904 C304.22108,40.576 304.05308,41.152 303.72908,41.608 C303.34508,42.112 302.82908,42.364 302.18108,42.364 C301.52108,42.364 301.00508,42.112 300.64508,41.608 C300.30908,41.152 300.15308,40.588 300.15308,39.904 C300.15308,39.208 300.30908,38.644 300.64508,38.188 C301.00508,37.684 301.52108,37.432 302.18108,37.432 Z M310.837807,36.628 C310.405807,36.628 310.033807,36.76 309.709807,37.024 C309.445807,37.228 309.229807,37.516 309.061807,37.876 L309.061807,36.796 L308.113807,36.796 L308.113807,43 L309.061807,43 L309.061807,39.712 C309.061807,39.136 309.217807,38.644 309.553807,38.236 C309.877807,37.804 310.285807,37.6 310.765807,37.6 C311.065807,37.6 311.377807,37.636 311.689807,37.732 L311.689807,36.772 C311.461807,36.676 311.173807,36.628 310.837807,36.628 Z M316.878534,36.628 C317.826534,36.628 318.474534,37.012 318.822534,37.804 C319.028248,37.4542857 319.269228,37.1839184 319.545473,37.0004548 L319.686534,36.916 C319.986534,36.724 320.346534,36.628 320.778534,36.628 C321.426534,36.628 321.942534,36.832 322.350534,37.24 C322.734534,37.66 322.938534,38.224 322.938534,38.932 L322.938534,43 L321.978534,43 L321.978534,39.088 C321.978534,38.536 321.858534,38.128 321.630534,37.864 C321.390534,37.576 321.006534,37.444 320.478534,37.444 C320.070534,37.444 319.722534,37.588 319.458534,37.9 C319.170534,38.212 319.038534,38.608 319.038534,39.112 L319.038534,43 L318.078534,43 L318.078534,39.088 C318.078534,37.984 317.598534,37.444 316.650534,37.444 C316.206534,37.444 315.846534,37.612 315.558534,37.972 C315.270534,38.308 315.126534,38.728 315.126534,39.22 L315.126534,43 L314.166534,43 L314.166534,36.796 L315.126534,36.796 L315.126534,37.624 C315.594534,36.952 316.182534,36.628 316.878534,36.628 Z" id="FHTFiscalandTaxLawAIBigDataPlatform" fill-opacity="0.7"></path>
                    </g>
                </g>
                <path d="M49.2353075,0 C52.4152925,0.00956103246 54.9905009,2.60187563 55,5.8022719 L55,47.3079886 C55,47.6544844 54.8625899,47.9866565 54.6190857,48.2315843 L48.3002786,54.6263215 C47.7954388,55.1245595 46.9873055,55.1245595 46.4824658,54.6263215 L40.7868002,49.1376515 L35.3336784,54.6091117 C34.8408599,55.0528241 34.0954427,55.0528241 33.6026242,54.6091117 L27.7166597,49.1376515 L22.3325649,54.6091117 C22.0935525,54.8499861 21.7705612,54.9874348 21.432366,54.9921904 C21.0905674,54.9965842 20.7608393,54.8651158 20.5147521,54.6263215 L14.9403584,49.1029131 L8.95053706,54.6438501 C8.45771855,55.0875625 7.71230131,55.0875625 7.2194828,54.6438501 L0.415904449,48.2491129 C0.150949819,48.0017852 0.000236391891,47.6544959 0.000236391891,47.2907787 L0.000236391891,5.87206743 C-0.0283372051,2.65796702 2.53705544,0.0290017985 5.73033918,0 L49.2353075,0 Z M45.3463312,38.372093 L9.65366881,38.372093 C9.03555942,38.372093 8.53448276,38.8731697 8.53448276,39.4912791 C8.53448276,40.1093885 9.03555942,40.6104651 9.65366881,40.6104651 L9.65366881,40.6104651 L45.3463312,40.6104651 C45.9644406,40.6104651 46.4655172,40.1093885 46.4655172,39.4912791 C46.4655172,38.8731697 45.9644406,38.372093 45.3463312,38.372093 L45.3463312,38.372093 Z M17.851429,14.3895349 L9.26781609,14.3895349 C8.86280728,14.3895349 8.53448276,14.7178594 8.53448276,15.1228682 L8.53448276,15.1228682 L8.53448276,29.6445736 C8.53448276,30.0495825 8.86280728,30.377907 9.26781609,30.377907 L9.26781609,30.377907 L10.215693,30.377907 C10.6207018,30.377907 10.9490263,30.0495825 10.9490263,29.6445736 L10.9490263,29.6445736 L10.9490263,24.0351541 C10.9490263,23.6301452 11.2773508,23.3018207 11.6823596,23.3018207 L11.6823596,23.3018207 L17.4180494,23.3018207 C17.8230582,23.3018207 18.1513827,22.9734962 18.1513827,22.5684874 L18.1513827,22.5684874 L18.1513827,21.7958863 C18.1513827,21.3908774 17.8230582,21.0625529 17.4180494,21.0625529 L17.4180494,21.0625529 L11.6823596,21.0625529 C11.2773508,21.0625529 10.9490263,20.7342284 10.9490263,20.3292196 L10.9490263,20.3292196 L10.9490263,17.362136 C10.9490263,16.9571272 11.2773508,16.6288027 11.6823596,16.6288027 L11.6823596,16.6288027 L17.851429,16.6288027 C18.2564378,16.6288027 18.5847623,16.3004782 18.5847623,15.8954694 L18.5847623,15.8954694 L18.5847623,15.1228682 C18.5847623,14.7178594 18.2564378,14.3895349 17.851429,14.3895349 L17.851429,14.3895349 Z M22.0201281,14.3895349 L21.0722512,14.3895349 C20.6672424,14.3895349 20.3389179,14.7178594 20.3389179,15.1228682 L20.3389179,15.1228682 L20.3389179,29.6445736 C20.3389179,30.0495825 20.6672424,30.377907 21.0722512,30.377907 L21.0722512,30.377907 L22.0201281,30.377907 C22.4251369,30.377907 22.7534614,30.0495825 22.7534614,29.6445736 L22.7534614,29.6445736 L22.7534614,24.0351541 C22.7534614,23.6301452 23.0817859,23.3018207 23.4867947,23.3018207 L23.4867947,23.3018207 L29.4907671,23.3018207 C29.8957759,23.3018207 30.2241004,23.6301452 30.2241004,24.0351541 L30.2241004,24.0351541 L30.2241004,29.6445736 C30.2241004,30.0495825 30.5524249,30.377907 30.9574337,30.377907 L30.9574337,30.377907 L31.9053106,30.377907 C32.3103194,30.377907 32.638644,30.0495825 32.638644,29.6445736 L32.638644,29.6445736 L32.638644,15.1228682 C32.638644,14.7178594 32.3103194,14.3895349 31.9053106,14.3895349 L31.9053106,14.3895349 L30.9574337,14.3895349 C30.5524249,14.3895349 30.2241004,14.7178594 30.2241004,15.1228682 L30.2241004,15.1228682 L30.2241004,20.3292196 C30.2241004,20.7342284 29.8957759,21.0625529 29.4907671,21.0625529 L29.4907671,21.0625529 L23.4867947,21.0625529 C23.0817859,21.0625529 22.7534614,20.7342284 22.7534614,20.3292196 L22.7534614,20.3292196 L22.7534614,15.1228682 C22.7534614,14.7178594 22.4251369,14.3895349 22.0201281,14.3895349 L22.0201281,14.3895349 Z M45.7321839,14.3895349 L35.1261329,14.3895349 C34.721124,14.3895349 34.3927995,14.7178594 34.3927995,15.1228682 L34.3927995,15.1228682 L34.3927995,15.8954694 C34.3927995,16.3004782 34.721124,16.6288027 35.1261329,16.6288027 L35.1261329,16.6288027 L38.4885533,16.6288027 C38.8935621,16.6288027 39.2218866,16.9571272 39.2218866,17.362136 L39.2218866,17.362136 L39.2218866,29.6445736 C39.2218866,30.0495825 39.5502111,30.377907 39.9552199,30.377907 L39.9552199,30.377907 L40.9030968,30.377907 C41.3081056,30.377907 41.6364302,30.0495825 41.6364302,29.6445736 L41.6364302,29.6445736 L41.6364302,17.362136 C41.6364302,16.9571272 41.9647547,16.6288027 42.3697635,16.6288027 L42.3697635,16.6288027 L45.7321839,16.6288027 C46.1371927,16.6288027 46.4655172,16.3004782 46.4655172,15.8954694 L46.4655172,15.8954694 L46.4655172,15.1228682 C46.4655172,14.7178594 46.1371927,14.3895349 45.7321839,14.3895349 L45.7321839,14.3895349 Z" id="形状"></path>
            </g>
        </g>
    </g>
</svg>