<?xml version="1.0" encoding="UTF-8"?>
<svg width="18px" height="18px" viewBox="0 0 18 18" version="1.1" xmlns="http://www.w3.org/2000/svg" xmlns:xlink="http://www.w3.org/1999/xlink">
    <!-- Generator: Sketch 59.1 (86144) - https://sketch.com -->
    <title>关闭</title>
    <desc>Created with Sketch.</desc>
    <g id="电脑端1.0" stroke="none" stroke-width="1" fill="none" fill-rule="evenodd">
        <g id="风控中心-搜索结果（合同可视化中心）" transform="translate(-1181.000000, -248.000000)" fill-rule="nonzero">
            <g id="编组-8" transform="translate(400.000000, 192.000000)">
                <g id="关闭" transform="translate(780.000000, 55.000000)">
                    <rect id="矩形" fill="#000000" opacity="0" x="0" y="0" width="20" height="20"></rect>
                    <path d="M10.0022685,1.24837359 C14.8255783,1.24837359 18.7362268,5.15906215 18.7362268,9.98233197 C18.7362268,14.8056418 14.8255783,18.7162704 10.0022685,18.7162704 C5.17895865,18.7162704 1.26831008,14.8056418 1.26831008,9.98233197 C1.26831008,5.15906215 5.17895865,1.24837359 10.0022685,1.24837359 Z M12.4912409,6.71348826 C12.2705106,6.70495404 12.0477017,6.77854416 11.8792159,6.94696996 L10.0022685,8.82445703 L8.12530105,6.94696996 C7.95683527,6.77854416 7.73400635,6.70495404 7.51331598,6.71348826 C7.31503041,6.72202248 7.11886342,6.79561258 6.96744607,6.94696996 C6.81602873,7.0983673 6.74195895,7.29453432 6.73396438,7.49283986 C6.72489053,7.71353023 6.79896031,7.93635916 6.96744607,8.10482494 L8.8443935,9.98231201 L6.96744607,11.8587598 C6.79896031,12.0272256 6.72489053,12.2500545 6.73396438,12.4707449 C6.74195895,12.6690304 6.81602873,12.8651974 6.96744607,13.0166148 C7.11884342,13.1680121 7.31501043,13.2426415 7.51331598,13.2501364 C7.73400635,13.25971 7.95683527,13.1850805 8.12530105,13.0166148 L10.0022685,11.140187 L11.8792159,13.0166148 C12.0477017,13.1850805 12.2705106,13.25969 12.4912409,13.2501364 C12.6900462,13.2426415 12.8856735,13.1680321 13.0370909,13.0166148 C13.1885082,12.8652174 13.262558,12.6690304 13.2705726,12.4707449 C13.2796264,12.2500545 13.2055766,12.0272256 13.0370909,11.8587598 L11.1601434,9.98231201 L13.0370909,8.10482494 C13.2055766,7.93635914 13.2796264,7.71353023 13.2705726,7.49283986 C13.262578,7.29453432 13.1885282,7.0983873 13.0370909,6.94696996 C12.8856935,6.79561258 12.6900661,6.72202248 12.4912409,6.71348826 Z" id="形状" fill="#CECECE"></path>
                </g>
            </g>
        </g>
    </g>
</svg>