<?xml version="1.0" encoding="UTF-8"?>
<svg width="30px" height="30px" viewBox="0 0 30 30" version="1.1" xmlns="http://www.w3.org/2000/svg" xmlns:xlink="http://www.w3.org/1999/xlink">
    <!-- Generator: Sketch 59.1 (86144) - https://sketch.com -->
    <title>形状</title>
    <desc>Created with Sketch.</desc>
    <g id="电脑端1.0" stroke="none" stroke-width="1" fill="none" fill-rule="evenodd">
        <g id="控制中心" transform="translate(-220.000000, -15.000000)" fill="#FFFFFF" fill-rule="nonzero">
            <g id="编组-6">
                <g id="编组-2" transform="translate(220.000000, 15.000000)">
                    <path d="M26.8556088,0 C28.5901535,0.00521510861 29.9948186,1.41920489 30,3.16487558 L30,25.8043574 C30,25.9933551 29.9250487,26.1745399 29.7922277,26.3081369 L26.3455908,29.7961754 C26.0702225,30.0679415 25.6294206,30.0679415 25.3540523,29.7961754 L22.2473122,26.8023554 L19.2728694,29.7867882 C19.0040582,30.0288132 18.5974652,30.0288132 18.3286539,29.7867882 L15.1181141,26.8023554 L12.1813224,29.7867882 C12.0509515,29.9181743 11.8747736,29.9931462 11.6903028,29.9957402 C11.5038663,29.9981368 11.3240139,29.9264268 11.1897839,29.7961754 L8.1491925,26.7834071 L4.88200316,29.8057364 C4.61319191,30.0477614 4.20659894,30.0477614 3.93778769,29.8057364 L0.226729006,26.3176979 C0.0822076771,26.1827919 1.13686784e-13,25.9933614 1.13686784e-13,25.7949702 L1.13686784e-13,3.20294587 C-0.0155856654,1.44980019 1.38372543,0.0158191628 3.12552404,0 L26.8556088,0 Z M24.5,21 L4.5,21 C4.22385763,21 4,21.2238576 4,21.5 C4,21.7761424 4.22385763,22 4.5,22 L4.5,22 L24.5,22 C24.7761424,22 25,21.7761424 25,21.5 C25,21.2238576 24.7761424,21 24.5,21 L24.5,21 Z M9.15820022,8 L4.406,8 C4.18177239,8 4,8.18481686 4,8.4128 L4,8.4128 L4,16.5872 C4,16.8151831 4.18177239,17 4.406,17 L4.406,17 L4.93077911,17 C5.15500672,17 5.33677911,16.8151831 5.33677911,16.5872 L5.33677911,16.5872 L5.33677911,13.4296067 C5.33677911,13.2016236 5.5185515,13.0168067 5.74277911,13.0168067 L5.74277911,13.0168067 L8.91826551,13.0168067 C9.14249311,13.0168067 9.32426551,12.8319899 9.32426551,12.6040067 L9.32426551,12.6040067 L9.32426551,12.1691025 C9.32426551,11.9411194 9.14249311,11.7563025 8.91826551,11.7563025 L8.91826551,11.7563025 L5.74277911,11.7563025 C5.5185515,11.7563025 5.33677911,11.5714857 5.33677911,11.3435025 L5.33677911,11.3435025 L5.33677911,9.6733042 C5.33677911,9.44532106 5.5185515,9.2605042 5.74277911,9.2605042 L5.74277911,9.2605042 L9.15820022,9.2605042 C9.38242783,9.2605042 9.56420022,9.07568735 9.56420022,8.8477042 L9.56420022,8.8477042 L9.56420022,8.4128 C9.56420022,8.18481686 9.38242783,8 9.15820022,8 L9.15820022,8 Z M11.4661436,8 L10.9413645,8 C10.7171369,8 10.5353645,8.18481686 10.5353645,8.4128 L10.5353645,8.4128 L10.5353645,16.5872 C10.5353645,16.8151831 10.7171369,17 10.9413645,17 L10.9413645,17 L11.4661436,17 C11.6903712,17 11.8721436,16.8151831 11.8721436,16.5872 L11.8721436,16.5872 L11.8721436,13.4296067 C11.8721436,13.2016236 12.053916,13.0168067 12.2781436,13.0168067 L12.2781436,13.0168067 L15.602161,13.0168067 C15.8263887,13.0168067 16.008161,13.2016236 16.008161,13.4296067 L16.008161,13.4296067 L16.008161,16.5872 C16.008161,16.8151831 16.1899334,17 16.414161,17 L16.414161,17 L16.9389402,17 C17.1631678,17 17.3449402,16.8151831 17.3449402,16.5872 L17.3449402,16.5872 L17.3449402,8.4128 C17.3449402,8.18481686 17.1631678,8 16.9389402,8 L16.9389402,8 L16.414161,8 C16.1899334,8 16.008161,8.18481686 16.008161,8.4128 L16.008161,8.4128 L16.008161,11.3435025 C16.008161,11.5714857 15.8263887,11.7563025 15.602161,11.7563025 L15.602161,11.7563025 L12.2781436,11.7563025 C12.053916,11.7563025 11.8721436,11.5714857 11.8721436,11.3435025 L11.8721436,11.3435025 L11.8721436,8.4128 C11.8721436,8.18481686 11.6903712,8 11.4661436,8 L11.4661436,8 Z M24.594,8 L18.7221045,8 C18.4978769,8 18.3161045,8.18481686 18.3161045,8.4128 L18.3161045,8.4128 L18.3161045,8.8477042 C18.3161045,9.07568735 18.4978769,9.2605042 18.7221045,9.2605042 L18.7221045,9.2605042 L20.5836627,9.2605042 C20.8078903,9.2605042 20.9896627,9.44532106 20.9896627,9.6733042 L20.9896627,9.6733042 L20.9896627,16.5872 C20.9896627,16.8151831 21.1714351,17 21.3956627,17 L21.3956627,17 L21.9204418,17 C22.1446694,17 22.3264418,16.8151831 22.3264418,16.5872 L22.3264418,16.5872 L22.3264418,9.6733042 C22.3264418,9.44532106 22.5082142,9.2605042 22.7324418,9.2605042 L22.7324418,9.2605042 L24.594,9.2605042 C24.8182276,9.2605042 25,9.07568735 25,8.8477042 L25,8.8477042 L25,8.4128 C25,8.18481686 24.8182276,8 24.594,8 L24.594,8 Z" id="形状"></path>
                </g>
            </g>
        </g>
    </g>
</svg>