<?xml version="1.0" encoding="UTF-8"?>
<svg width="391px" height="55px" viewBox="0 0 391 55" version="1.1" xmlns="http://www.w3.org/2000/svg" xmlns:xlink="http://www.w3.org/1999/xlink">
    <!-- Generator: Sketch 59.1 (86144) - https://sketch.com -->
    <title>编组 10</title>
    <desc>Created with Sketch.</desc>
    <g id="电脑端1.0" stroke="none" stroke-width="1" fill="none" fill-rule="evenodd">
        <g id="控制中心备份" transform="translate(-273.000000, -40.000000)" fill="#FFFFFF" fill-rule="nonzero">
            <g id="编组-10" transform="translate(273.000000, 40.000000)">
                <path d="M49.2353075,0 C52.4152925,0.00956103246 54.9905009,2.60187563 55,5.8022719 L55,47.3079886 C55,47.6544844 54.8625899,47.9866565 54.6190857,48.2315843 L48.3002786,54.6263215 C47.7954388,55.1245595 46.9873055,55.1245595 46.4824658,54.6263215 L40.7868002,49.1376515 L35.3336784,54.6091117 C34.8408599,55.0528241 34.0954427,55.0528241 33.6026242,54.6091117 L27.7166597,49.1376515 L22.3325649,54.6091117 C22.0935525,54.8499861 21.7705612,54.9874348 21.432366,54.9921904 C21.0905674,54.9965842 20.7608393,54.8651158 20.5147521,54.6263215 L14.9403584,49.1029131 L8.95053706,54.6438501 C8.45771855,55.0875625 7.71230131,55.0875625 7.2194828,54.6438501 L0.415904449,48.2491129 C0.150949819,48.0017852 0.000236391891,47.6544959 0.000236391891,47.2907787 L0.000236391891,5.87206743 C-0.0283372051,2.65796702 2.53705544,0.0290017985 5.73033918,0 L49.2353075,0 Z M45.3463312,38.372093 L9.65366881,38.372093 C9.03555942,38.372093 8.53448276,38.8731697 8.53448276,39.4912791 C8.53448276,40.1093885 9.03555942,40.6104651 9.65366881,40.6104651 L9.65366881,40.6104651 L45.3463312,40.6104651 C45.9644406,40.6104651 46.4655172,40.1093885 46.4655172,39.4912791 C46.4655172,38.8731697 45.9644406,38.372093 45.3463312,38.372093 L45.3463312,38.372093 Z M17.851429,14.3895349 L9.26781609,14.3895349 C8.86280728,14.3895349 8.53448276,14.7178594 8.53448276,15.1228682 L8.53448276,15.1228682 L8.53448276,29.6445736 C8.53448276,30.0495825 8.86280728,30.377907 9.26781609,30.377907 L9.26781609,30.377907 L10.215693,30.377907 C10.6207018,30.377907 10.9490263,30.0495825 10.9490263,29.6445736 L10.9490263,29.6445736 L10.9490263,24.0351541 C10.9490263,23.6301452 11.2773508,23.3018207 11.6823596,23.3018207 L11.6823596,23.3018207 L17.4180494,23.3018207 C17.8230582,23.3018207 18.1513827,22.9734962 18.1513827,22.5684874 L18.1513827,22.5684874 L18.1513827,21.7958863 C18.1513827,21.3908774 17.8230582,21.0625529 17.4180494,21.0625529 L17.4180494,21.0625529 L11.6823596,21.0625529 C11.2773508,21.0625529 10.9490263,20.7342284 10.9490263,20.3292196 L10.9490263,20.3292196 L10.9490263,17.362136 C10.9490263,16.9571272 11.2773508,16.6288027 11.6823596,16.6288027 L11.6823596,16.6288027 L17.851429,16.6288027 C18.2564378,16.6288027 18.5847623,16.3004782 18.5847623,15.8954694 L18.5847623,15.8954694 L18.5847623,15.1228682 C18.5847623,14.7178594 18.2564378,14.3895349 17.851429,14.3895349 L17.851429,14.3895349 Z M22.0201281,14.3895349 L21.0722512,14.3895349 C20.6672424,14.3895349 20.3389179,14.7178594 20.3389179,15.1228682 L20.3389179,15.1228682 L20.3389179,29.6445736 C20.3389179,30.0495825 20.6672424,30.377907 21.0722512,30.377907 L21.0722512,30.377907 L22.0201281,30.377907 C22.4251369,30.377907 22.7534614,30.0495825 22.7534614,29.6445736 L22.7534614,29.6445736 L22.7534614,24.0351541 C22.7534614,23.6301452 23.0817859,23.3018207 23.4867947,23.3018207 L23.4867947,23.3018207 L29.4907671,23.3018207 C29.8957759,23.3018207 30.2241004,23.6301452 30.2241004,24.0351541 L30.2241004,24.0351541 L30.2241004,29.6445736 C30.2241004,30.0495825 30.5524249,30.377907 30.9574337,30.377907 L30.9574337,30.377907 L31.9053106,30.377907 C32.3103194,30.377907 32.638644,30.0495825 32.638644,29.6445736 L32.638644,29.6445736 L32.638644,15.1228682 C32.638644,14.7178594 32.3103194,14.3895349 31.9053106,14.3895349 L31.9053106,14.3895349 L30.9574337,14.3895349 C30.5524249,14.3895349 30.2241004,14.7178594 30.2241004,15.1228682 L30.2241004,15.1228682 L30.2241004,20.3292196 C30.2241004,20.7342284 29.8957759,21.0625529 29.4907671,21.0625529 L29.4907671,21.0625529 L23.4867947,21.0625529 C23.0817859,21.0625529 22.7534614,20.7342284 22.7534614,20.3292196 L22.7534614,20.3292196 L22.7534614,15.1228682 C22.7534614,14.7178594 22.4251369,14.3895349 22.0201281,14.3895349 L22.0201281,14.3895349 Z M45.7321839,14.3895349 L35.1261329,14.3895349 C34.721124,14.3895349 34.3927995,14.7178594 34.3927995,15.1228682 L34.3927995,15.1228682 L34.3927995,15.8954694 C34.3927995,16.3004782 34.721124,16.6288027 35.1261329,16.6288027 L35.1261329,16.6288027 L38.4885533,16.6288027 C38.8935621,16.6288027 39.2218866,16.9571272 39.2218866,17.362136 L39.2218866,17.362136 L39.2218866,29.6445736 C39.2218866,30.0495825 39.5502111,30.377907 39.9552199,30.377907 L39.9552199,30.377907 L40.9030968,30.377907 C41.3081056,30.377907 41.6364302,30.0495825 41.6364302,29.6445736 L41.6364302,29.6445736 L41.6364302,17.362136 C41.6364302,16.9571272 41.9647547,16.6288027 42.3697635,16.6288027 L42.3697635,16.6288027 L45.7321839,16.6288027 C46.1371927,16.6288027 46.4655172,16.3004782 46.4655172,15.8954694 L46.4655172,15.8954694 L46.4655172,15.1228682 C46.4655172,14.7178594 46.1371927,14.3895349 45.7321839,14.3895349 L45.7321839,14.3895349 Z" id="形状"></path>
                <g id="编组-2" transform="translate(69.000000, 5.000000)">
                    <path d="M6.5,18.7 L6.5,15.225 L9.35,15.225 L9.35,12.575 L6.5,12.575 L6.5,10.125 L8.875,10.125 L8.875,7.475 L2.6,7.475 C2.95,6.9 3.3,6.325 3.65,5.675 L9.525,5.675 L9.525,2.85 L4.9,2.85 C5.125,2.275 5.275,1.725 5.45,1.175 L2.825,0.425 C2.25,2.6 1.225,4.7 8.52651283e-14,6.15 C0.425,6.8 1.15,8.375 1.375,9 C1.575,8.8 1.775,8.575 1.975,8.325 L1.975,10.125 L3.85,10.125 L3.85,12.575 L0.675,12.575 L0.675,15.225 L3.85,15.225 L3.85,18.9 C3.85,20.25 2.925,21.225 2.375,21.65 C2.8,22.075 3.525,23.05 3.8,23.575 L3.8,23.475 L3.825,23.575 L3.96285569,23.4395816 C4.47995062,22.964679 5.55,22.3122222 9.65,19.875 C9.425,19.3 9.125,18.125 9.025,17.325 L6.5,18.7 Z M13.375,8.225 L19.4,8.225 L19.4,9.55 L13.375,9.55 L13.375,8.225 Z M13.375,4.925 L19.4,4.925 L19.4,6.2 L13.375,6.2 L13.375,4.925 Z M22.925,13.4 L17.875,13.4 L17.875,11.725 L22.275,11.725 L22.275,2.75 L17.275,2.75 L17.7016,1.4972 C17.8,1.208 17.9,0.91 18,0.6 L14.625,0.375 C14.575,1.075 14.45,1.925 14.3,2.75 L10.625,2.75 L10.625,11.725 L15,11.725 L15,13.4 L10.025,13.4 L10.025,21.65 L12.775,21.65 L12.775,16 L15,16 L15,23.675 L17.875,23.675 L17.875,16 L20.1,16 L20.1,18.9 C20.1,19.125 20.025,19.175 19.775,19.2 C19.55,19.225 18.85,19.2 18.175,19.175 C18.5,19.9 18.825,20.925 18.9,21.675 L19.4803823,21.6720414 C20.508284,21.6590237 21.3365385,21.5923077 21.95,21.275 C22.75,20.85 22.925,20.175 22.925,18.95 L22.925,13.4 Z M30.25,0.5 C29.1,4.025 27.1,7.575 25,9.85 C25.475,10.55 26.275,12.1 26.525,12.775 C27.125,12.075 27.75,11.25 28.35,10.4 L28.35,23.85 L31.05,23.85 L31.05,5.725 C31.775,4.275 32.375,2.775 32.9,1.3 L30.25,0.5 Z M44.175,17.75 L44.175,20.575 L36.1,20.575 L36.1,17.75 L44.175,17.75 Z M33.575,23.725 L36.1,23.725 L36.1,22.95 L44.175,22.95 L44.175,23.65 L46.8,23.65 L46.8,15.375 L33.575,15.375 L33.575,23.725 Z M33.95,13.975 L46.475,13.975 L46.475,11.65 L33.95,11.65 L33.95,13.975 Z M46.475,8.025 L33.95,8.025 L33.95,10.35 L46.475,10.35 L46.475,8.025 Z M40.725,4.275 L42.15,3.65 C41.8,2.75 41.025,1.375 40.325,0.35 L37.8,1.3 C38.35,2.2 38.975,3.35 39.35,4.275 L32.2,4.275 L32.2,6.7 L48.275,6.7 L48.275,4.275 L40.725,4.275 Z M53.45,3.7 L58.05,3.7 L58.05,17 L60.45,17 L60.45,1.35 L51.15,1.35 L51.15,17.1 L53.45,17.1 L53.45,3.7 Z M56.125,18.4 C56.875,16.4 57.05,14.25 57.05,12.3 L57.05,4.875 L54.575,4.875 L54.575,12.275 C54.575,15.425 54.175,19.575 50.025,21.8 C50.6,22.225 51.4,23.125 51.75,23.675 C53.9,22.35 55.2,20.65 55.95,18.8 C57.125,20.175 58.5,22 59.125,23.175 L61.1,21.5 C60.425,20.325 58.925,18.5 57.7,17.175 L56.125,18.4 Z M73.3,5.325 L70.875,5.325 L70.875,0.4 L67.825,0.4 L67.825,5.325 L61.25,5.325 L61.25,8.15 L66.8,8.15 C65.275,11.9 62.825,15.775 60.175,17.825 C60.95,18.425 61.875,19.5 62.4,20.25 C64.4,18.4 66.325,15.6 67.825,12.65 L67.825,20.2 C67.825,20.625 67.675,20.725 67.275,20.75 L66.9758972,20.761261 C66.4262695,20.7732422 65.409375,20.765625 64.475,20.725 C64.9,21.525 65.35,22.825 65.475,23.675 L66.1547363,23.6697266 C67.6863281,23.64375 68.8375,23.5125 69.625,23.075 C70.575,22.575 70.875,21.8 70.875,20.225 L70.875,8.15 L73.3,8.15 L73.3,5.325 Z M83.45,16.3 L85.1,13.925 L84.9010862,13.6947113 C84.2086565,12.9145429 82.5039474,11.1368421 81.9,10.6 L81.9,10.225 L84.9,10.225 L84.9,7.45 L81.9,7.45 L81.9,3.825 C82.975,3.6 84.025,3.275 84.925,2.925 L83.275,0.525 C81.25,1.35 78.175,2.1 75.4,2.55 C75.7,3.2 76.075,4.175 76.2,4.85 C77.1,4.75 78.05,4.6 79.025,4.425 L79.025,7.45 L75.35,7.45 L75.35,10.225 L78.475,10.225 C77.6,12.6 76.2,15.275 74.825,16.875 C75.3,17.65 75.975,18.9 76.25,19.775 C77.25,18.5 78.2,16.65 79.025,14.675 L79.025,23.725 L81.9,23.725 L81.9,13.525 C82.525,14.525 83.125,15.575 83.45,16.3 Z M94.45,11.25 L88.275,11.25 L88.275,7.975 L94.45,7.975 L94.45,11.25 Z M95.8,20.8 L95,20.8 L94.8754074,20.7945778 C94.6375556,20.768 94.6,20.625 94.6,19.975 L94.6,13.85 L97.425,13.85 L97.425,5.375 L95.025,5.375 C95.65,4.175 96.3,2.775 96.925,1.425 L93.85,0.45 C93.45,1.95 92.675,3.975 91.975,5.375 L89.3,5.375 L90.8,4.7 C90.425,3.525 89.45,1.775 88.525,0.475 L86.075,1.55 C86.825,2.725 87.6,4.225 88.025,5.375 L85.425,5.375 L85.425,13.85 L87.725,13.85 C87.475,17.25 86.8,19.875 83.175,21.45 C83.775,21.975 84.575,23.075 84.925,23.775 C89.275,21.725 90.225,18.25 90.575,13.85 L91.875,13.85 L91.875,20 C91.875,22.525 92.325,23.35 94.475,23.35 L96.125,23.35 C97.825,23.35 98.525,22.4 98.75,18.875 C98.025,18.7 96.875,18.225 96.35,17.775 L96.3265,18.50365 C96.25225,20.49625 96.1375,20.8 95.8,20.8 Z M108.125,3.175 C107.075,2.375 104.95,1.275 103.375,0.65 L101.75,2.85 C103.35,3.575 105.4,4.775 106.4,5.625 L108.125,3.175 Z M106.6,9.775 C105.525,8.95 103.4,7.925 101.85,7.325 L100.275,9.55 C101.875,10.25 103.975,11.425 104.95,12.25 L106.6,9.775 Z M103.675,23.475 C105.15,21.05 106.75,18.2 108.075,15.6 L105.875,13.6 C104.4,16.5 102.5,19.575 101.15,21.475 L103.675,23.475 Z M123.325,22.4 C122.675,20.375 120.85,17.475 119.2,15.3 L116.775,16.5 C117.35,17.275 117.925,18.175 118.45,19.075 L112.575,19.675 C113.8,17.775 115.05,15.525 116.05,13.25 L122.85,13.25 L122.85,10.45 L116.825,10.45 L116.825,6.925 L121.925,6.925 L121.925,4.1 L116.825,4.1 L116.825,0.375 L113.8,0.375 L113.8,4.1 L108.875,4.1 L108.875,6.925 L113.8,6.925 L113.8,10.45 L107.875,10.45 L107.875,13.25 L112.575,13.25 L112.331646,13.83808 C111.428837,15.97032 110.430002,17.81216 109.982539,18.51176 L109.925,18.6 C109.35,19.5 108.875,20.025 108.3,20.2 C108.675,21.05 109.175,22.525 109.35,23.175 L109.47795,23.1128094 C110.320125,22.728 111.86625,22.5 119.775,21.55 C120.175,22.325 120.475,23.1 120.65,23.75 L123.325,22.4 Z M141.975,15.925 L141.975,19.875 L132.075,19.875 L132.075,15.925 L141.975,15.925 Z M129.025,23.725 L132.075,23.725 L132.075,22.625 L141.975,22.625 L141.975,23.625 L145.15,23.625 L145.15,13.3 L129.025,13.3 L129.025,23.725 Z M132.95,8.425 C134.425,7.35 135.8,6.175 137.075,4.85 C138.55,6.3 140,7.45 141.425,8.425 L132.95,8.425 Z M137.075,0.275 C134.45,4.175 129.725,7.2 125.125,9.025 C125.95,9.775 126.825,10.9 127.3,11.75 C128.425,11.225 129.55,10.6 130.65,9.925 L130.65,11.15 L143.15,11.15 L143.15,9.525 C144.325,10.2 145.55,10.8 146.75,11.375 C147.15,10.45 148.025,9.35 148.8,8.65 C145.425,7.425 142.1,5.725 138.9,2.75 C139.175,2.4 139.45,2.025 139.725,1.65 L137.075,0.275 Z M163.775,4.075 L169.525,4.075 L169.525,14.775 L172.5,14.775 L172.5,1.525 L160.95,1.525 L160.95,14.775 L163.775,14.775 L163.775,4.075 Z M158.575,20 L160.575,17.85 L159.848047,16.9769531 C158.876563,15.8203125 157.325,14.00625 156.575,13.275 L156.625,12.825 L160.1,12.825 L160.1,10 L156.8,10 C156.816667,9.66666667 156.822222,9.34444444 156.824074,9.02592593 L156.825,6.975 L159.825,6.975 L159.825,4.225 L156.825,4.225 L156.825,0.65 L154,0.65 L154,4.225 L150.775,4.225 L150.775,6.975 L154,6.975 L154,8.575 C154,9.025 154,9.5 153.975,10 L150.275,10 L150.275,12.825 L153.8,12.825 C153.475,15.9 152.55,19.225 150.05,21.45 C150.725,21.925 151.725,22.9 152.15,23.475 C154.2,21.5 155.35,18.95 156.025,16.325 L156.466875,16.9234297 C157.279734,18.0343195 158.088462,19.1961538 158.575,20 Z M169.275,20.925 C168.8,20.925 168.6,20.725 168.6,20.1 L168.6,14 L167.575,14 C167.925,12.475 168.05,10.975 168.05,9.6 L168.05,5.625 L165.3,5.625 L165.3,9.55 C165.3,13.375 164.6,18.3 158.225,21.6 C158.8,22.025 159.75,23.125 160.075,23.7 C162.9,22.2 164.8,20.225 165.975,18.15 L165.975,20.425 C165.975,22.575 166.775,23.175 168.75,23.175 L170.45,23.175 C172.9,23.175 173.35,22.05 173.6,18.25 C172.95,18.1 171.95,17.7 171.275,17.225 L171.25162,18.0094238 C171.16792,20.3500977 170.99375,20.925 170.45,20.925 L169.275,20.925 Z M180.1,13.95 L180.65,11.925 C181.2,10 181.75,7.9 182.225,5.875 L182.325,5.875 C182.875,7.875 183.375,10 183.95,11.925 L184.5,13.95 L180.1,13.95 Z M186.6,21.575 L190.475,21.575 L184.525,3.075 L180.175,3.075 L174.25,21.575 L178,21.575 L179.3,16.825 L185.3,16.825 L186.6,21.575 Z M192.65,21.575 L196.35,21.575 L196.35,3.075 L192.65,3.075 L192.65,21.575 Z M222.225,10.175 L222.225,7.1 L212.4,7.1 C212.65,4.775 212.675,2.475 212.7,0.425 L209.45,0.425 L209.42963,2.54444444 C209.411111,4 209.366667,5.53333333 209.2,7.1 L200.1,7.1 L200.1,10.175 L208.7,10.175 C207.725,14.475 205.35,18.625 199.625,21.175 C200.5,21.8 201.375,22.875 201.85,23.7 C207.15,21.15 209.85,17.25 211.2,13.075 C213.15,17.9 216.05,21.55 220.575,23.675 C221.05,22.825 222.025,21.5 222.775,20.875 C218.1,18.975 215.075,15.05 213.425,10.175 L222.225,10.175 Z M234.25,0.725 C233.85,1.65 233.175,3 232.6,3.875 L234.5,4.725 C235.15,3.95 235.925,2.825 236.75,1.7 L234.25,0.725 Z M229.5,11.625 L232.25,11.625 L232.25,8.9 C233.2,9.65 234.175,10.475 234.725,11 L236.275,8.925 L236.086551,8.79845817 C235.524394,8.4333045 234.317647,7.72352941 233.325,7.15 L236.975,7.15 L236.975,4.8 L232.25,4.8 L232.25,0.4 L229.5,0.4 L229.5,4.8 L226.975,4.8 L229,3.9 C228.8,3.05 228.175,1.75 227.5,0.825 L225.4,1.7 C225.95,2.675 226.525,3.95 226.725,4.8 L224.775,4.8 L224.775,7.15 L228.475,7.15 C227.3,8.375 225.725,9.475 224.25,10.075 C224.8,10.625 225.45,11.6 225.775,12.25 C227.025,11.575 228.35,10.525 229.5,9.375 L229.5,11.625 Z M233.025,15.6 C232.575,16.475 231.975,17.25 231.275,17.95 C230.625,17.6 229.925,17.25 229.25,16.925 C229.5,16.525 229.75,16.075 230,15.6 L233.025,15.6 Z M235.275,20.275 C234.775,19.925 234.175,19.55 233.5,19.175 C234.775,17.725 235.775,15.925 236.375,13.725 L234.775,13.125 L234.325,13.2 L231.15,13.2 C231.3,12.875 231.45,12.55 231.575,12.225 L228.95,11.75 C228.775,12.225 228.575,12.7 228.35,13.2 L225.225,13.2 L225.225,15.6 L227.125,15.6 C226.625,16.45 226.15,17.225 225.7,17.875 C226.825,18.35 228.075,18.925 229.25,19.55 C227.825,20.425 226.15,21.075 224.35,21.475 C224.85,21.975 225.425,23.025 225.7,23.7 C227.95,23.075 229.95,22.175 231.625,20.9 C232.375,21.35 233.025,21.8 233.525,22.175 L235.275,20.275 Z M243.2,7.75 C242.95,9.875 242.55,11.75 241.975,13.45 C241.325,11.675 240.825,9.75 240.45,7.75 L243.2,7.75 Z M247.525,7.75 L247.525,5 L240.875,5 C241.175,3.675 241.425,2.275 241.625,0.875 L238.925,0.475 C238.35,4.95 237.25,9.175 235.25,11.775 C235.85,12.2 236.975,13.175 237.375,13.675 C237.85,13 238.3,12.25 238.7,11.45 C239.2,13.35 239.75,15.1 240.475,16.675 C239.2,18.75 237.35,20.325 234.825,21.45 C235.35,22.025 236.125,23.275 236.4,23.875 C238.725,22.7 240.525,21.2 241.95,19.3 C243.075,21.05 244.45,22.475 246.175,23.55 C246.575,22.8 247.45,21.725 248.1,21.2 C246.225,20.175 244.7,18.6 243.55,16.625 C244.725,14.175 245.475,11.25 245.95,7.75 L247.525,7.75 Z M257.15,10.975 L254.95,11.575 L254.95,7.875 L257.45,7.875 L257.45,5.125 L254.95,5.125 L254.95,0.4 L252.25,0.4 L252.25,5.125 L249.625,5.125 L249.625,7.875 L252.25,7.875 L252.25,12.275 L250.852114,12.6331633 C250.265816,12.780102 249.725,12.9107143 249.225,13.025 L249.9,15.9 L252.25,15.225 L252.25,20.275 C252.25,20.5638889 252.151235,20.675 251.918587,20.6961248 L251.535583,20.7133136 C251.13003,20.7236686 250.467308,20.7192308 249.775,20.7 C250.125,21.475 250.45,22.7 250.525,23.425 C252.125,23.45 253.225,23.35 253.975,22.85 C254.725,22.4 254.95,21.675 254.95,20.3 L254.95,14.425 C255.8,14.175 256.675,13.9 257.5,13.65 L257.15,10.975 Z M261.05,10.825 C261.06875,10.3375 261.073438,9.8921875 261.074609,9.45742188 L261.075,8.625 L264.75,8.625 L264.75,10.825 L261.05,10.825 Z M269.1,3.925 L269.1,6.075 L261.075,6.075 L261.075,3.925 L269.1,3.925 Z M269.35,20.675 L263.3,20.675 L263.3,18.175 L269.35,18.175 L269.35,20.675 Z M272.6,13.325 L272.6,10.825 L267.525,10.825 L267.525,8.625 L271.9,8.625 L271.9,1.4 L258.175,1.4 L258.175,9.025 C258.175,12.925 257.975,18.4 255.525,22.075 C256.15,22.4 257.4,23.3 257.925,23.825 C259.825,21 260.625,16.975 260.9,13.325 L264.75,13.325 L264.75,15.725 L260.75,15.725 L260.75,23.75 L263.3,23.75 L263.3,23.025 L269.35,23.025 L269.35,23.725 L272.025,23.725 L272.025,15.725 L267.525,15.725 L267.525,13.325 L272.6,13.325 Z M297.5,12.475 L287.675,12.475 L287.675,4.9 L296.05,4.9 L296.05,1.95 L276.15,1.95 L276.15,4.9 L284.575,4.9 L284.575,12.475 L274.85,12.475 L274.85,15.5 L284.575,15.5 L284.575,23.75 L287.675,23.75 L287.675,15.5 L297.5,15.5 L297.5,12.475 Z M277.675,6.5 C278.475,8.175 279.25,10.375 279.5,11.7 L282.4,10.8 C282.125,9.4 281.225,7.3 280.4,5.7 L277.675,6.5 Z M292.275,11.65 C293.1,10.375 294.125,8.35 295.025,6.425 L291.85,5.625 C291.375,7.25 290.475,9.45 289.675,10.9 L292.275,11.65 Z M316.35,15.6 L316.35,19.6 L305.75,19.6 L305.75,15.6 L316.35,15.6 Z M302.7,23.725 L305.75,23.725 L305.75,22.45 L316.35,22.45 L316.35,23.7 L319.55,23.7 L319.55,12.75 L302.7,12.75 L302.7,23.725 Z M313.175,4.25 L315.5,2.7 C317.8,4.85 320.775,7.925 322.075,10.025 L319.55,11.85 C319.225,11.3 318.775,10.65 318.25,9.95 L307.423832,10.4897204 C303.679049,10.6972688 302.69157,10.8226744 301.875,11.1 C301.725,10.5 301.25,9.025 300.9,8.25 C301.55,8.075 302.15,7.6 302.975,6.8 L303.166684,6.62251519 C304.197347,5.63478148 306.684677,2.80645161 308.275,0 L311.275,1.275 C309.7,3.6 307.725,5.825 305.825,7.65 L316.075,7.325 C315.1,6.225 314.1,5.175 313.175,4.25 Z" id="锦信财税法合规AI大数据平台"></path>
                    <path d="M2.561,43.686 C4.394,43.686 5.122,42.386 5.122,40.774 L5.122,34.001 L4.043,34.001 L4.043,40.67 C4.043,42.139 3.523,42.737 2.47,42.737 C1.755,42.737 1.209,42.438 0.78,41.658 L-1.13686838e-13,42.204 C0.546,43.179 1.391,43.686 2.561,43.686 Z M8.744,43.517 L9.797,43.517 L9.797,36.497 L8.744,36.497 L8.744,43.517 Z M9.277,34.989 C9.693,34.989 10.044,34.69 10.044,34.274 C10.044,33.819 9.693,33.546 9.277,33.546 C8.835,33.546 8.51,33.819 8.51,34.274 C8.51,34.69 8.835,34.989 9.277,34.989 Z M13.341,43.517 L14.394,43.517 L14.394,38.382 C15.122,37.628 15.655,37.238 16.396,37.238 C17.371,37.238 17.787,37.836 17.787,39.188 L17.787,43.517 L18.853,43.517 L18.853,39.058 C18.853,37.264 18.177,36.315 16.708,36.315 C15.746,36.315 15.018,36.861 14.342,37.524 L14.303,37.524 L14.199,36.497 L13.341,36.497 L13.341,43.517 Z M21.292,43.517 L22.423,43.517 L23.866,40.865 L24.319024,39.988904 C24.42344,39.78236 24.5316,39.565 24.646,39.331 L24.698,39.331 C25.01,39.916 25.283,40.397 25.53,40.865 L26.986,43.517 L28.169,43.517 L25.374,38.655 L27.987,34.001 L26.869,34.001 L25.517,36.523 C25.283,36.952 25.101,37.342 24.841,37.888 L24.776,37.888 L24.2608148,36.9462222 C24.1823333,36.8046667 24.1043333,36.666 24.022,36.523 L22.67,34.001 L21.474,34.001 L24.087,38.603 L21.292,43.517 Z M30.725,43.517 L31.778,43.517 L31.778,36.497 L30.725,36.497 L30.725,43.517 Z M31.258,34.989 C31.674,34.989 32.025,34.69 32.025,34.274 C32.025,33.819 31.674,33.546 31.258,33.546 C30.816,33.546 30.491,33.819 30.491,34.274 C30.491,34.69 30.816,34.989 31.258,34.989 Z M35.322,43.517 L36.375,43.517 L36.375,38.382 C37.103,37.628 37.636,37.238 38.377,37.238 C39.352,37.238 39.768,37.836 39.768,39.188 L39.768,43.517 L40.834,43.517 L40.834,39.058 C40.834,37.264 40.158,36.315 38.689,36.315 C37.727,36.315 36.999,36.861 36.323,37.524 L36.284,37.524 L36.18,36.497 L35.322,36.497 L35.322,43.517 Z M48.377,43.517 L49.456,43.517 L49.456,39.175 L53.122,39.175 L53.122,38.265 L49.456,38.265 L49.456,34.911 L53.785,34.911 L53.785,34.001 L48.377,34.001 L48.377,43.517 Z M56.484,43.517 L57.537,43.517 L57.537,36.497 L56.484,36.497 L56.484,43.517 Z M57.017,34.989 C57.433,34.989 57.784,34.69 57.784,34.274 C57.784,33.819 57.433,33.546 57.017,33.546 C56.575,33.546 56.25,33.819 56.25,34.274 C56.25,34.69 56.575,34.989 57.017,34.989 Z M62.875,43.686 C64.5,43.686 65.384,42.75 65.384,41.632 C65.384,40.293 64.24,39.89 63.213,39.487 L62.9134414,39.3794961 C62.2241875,39.1260469 61.627,38.84025 61.627,38.226 C61.627,37.654 62.056,37.16 62.992,37.16 C63.629,37.16 64.136,37.433 64.617,37.784 L65.124,37.095 C64.591,36.666 63.824,36.315 62.992,36.315 C61.484,36.315 60.613,37.186 60.613,38.278 C60.613,39.3600952 61.5281882,39.846254 62.4438832,40.198631 L63.0300605,40.4163984 C63.7230469,40.683 64.37,41.02425 64.37,41.684 C64.37,42.334 63.889,42.854 62.914,42.854 C62.03,42.854 61.406,42.516 60.795,42.009 L60.262,42.724 C60.925,43.27 61.874,43.686 62.875,43.686 Z M70.917,43.686 C71.775,43.686 72.555,43.348 73.179,42.789 L72.711,42.087 C72.269,42.477 71.671,42.802 71.008,42.802 C69.656,42.802 68.746,41.684 68.746,40.02 C68.746,38.343 69.721,37.212 71.034,37.212 C71.619,37.212 72.074,37.472 72.49,37.862 L73.049,37.16 C72.555,36.705 71.918,36.315 70.995,36.315 C69.214,36.315 67.654,37.667 67.654,40.02 C67.654,42.334 69.071,43.686 70.917,43.686 Z M77.321,43.686 C78.205,43.686 79.011,43.231 79.687,42.659 L79.726,42.659 L79.817,43.517 L80.688,43.517 L80.688,39.162 C80.688,37.472 80.012,36.315 78.309,36.315 C77.178,36.315 76.19,36.835 75.579,37.238 L76.008,37.979 C76.541,37.602 77.295,37.199 78.14,37.199 C79.349,37.199 79.648,38.135 79.635,39.084 C76.619,39.422 75.28,40.176 75.28,41.71 C75.28,42.984 76.164,43.686 77.321,43.686 Z M77.607,42.828 C76.892,42.828 76.307,42.49 76.307,41.645 C76.307,40.683 77.152,40.085 79.635,39.799 L79.635,41.853 C78.92,42.49 78.322,42.828 77.607,42.828 Z M85.246,43.686 C85.545,43.686 85.714,43.647 85.883,43.595 L85.727,42.776 C85.597,42.802 85.545,42.802 85.48,42.802 C85.298,42.802 85.155,42.659 85.155,42.308 L85.155,33.169 L84.102,33.169 L84.102,42.23 C84.102,43.166 84.44,43.686 85.246,43.686 Z M94.414,43.686 C95.298,43.686 96.104,43.231 96.78,42.659 L96.819,42.659 L96.91,43.517 L97.781,43.517 L97.781,39.162 C97.781,37.472 97.105,36.315 95.402,36.315 C94.271,36.315 93.283,36.835 92.672,37.238 L93.101,37.979 C93.634,37.602 94.388,37.199 95.233,37.199 C96.442,37.199 96.741,38.135 96.728,39.084 C93.712,39.422 92.373,40.176 92.373,41.71 C92.373,42.984 93.257,43.686 94.414,43.686 Z M94.7,42.828 C93.985,42.828 93.4,42.49 93.4,41.645 C93.4,40.683 94.245,40.085 96.728,39.799 L96.728,41.853 C96.013,42.49 95.415,42.828 94.7,42.828 Z M101.195,43.517 L102.248,43.517 L102.248,38.382 C102.976,37.628 103.509,37.238 104.25,37.238 C105.225,37.238 105.641,37.836 105.641,39.188 L105.641,43.517 L106.707,43.517 L106.707,39.058 C106.707,37.264 106.031,36.315 104.562,36.315 C103.6,36.315 102.872,36.861 102.196,37.524 L102.157,37.524 L102.053,36.497 L101.195,36.497 L101.195,43.517 Z M112.526,43.686 C113.384,43.686 114.138,43.231 114.697,42.672 L114.723,42.672 L114.827,43.517 L115.698,43.517 L115.698,33.169 L114.645,33.169 L114.645,35.925 L114.697,37.147 C114.06,36.627 113.514,36.315 112.682,36.315 C111.07,36.315 109.627,37.745 109.627,40.02 C109.627,42.36 110.758,43.686 112.526,43.686 Z M112.747,42.789 C111.46,42.789 110.732,41.736 110.732,40.007 C110.732,38.369 111.655,37.212 112.851,37.212 C113.462,37.212 114.008,37.433 114.645,37.992 L114.645,41.788 C114.021,42.451 113.423,42.789 112.747,42.789 Z M125.334,43.517 L126.426,43.517 L126.426,34.911 L129.338,34.911 L129.338,34.001 L122.435,34.001 L122.435,34.911 L125.334,34.911 L125.334,43.517 Z M132.596,43.686 C133.48,43.686 134.286,43.231 134.962,42.659 L135.001,42.659 L135.092,43.517 L135.963,43.517 L135.963,39.162 C135.963,37.472 135.287,36.315 133.584,36.315 C132.453,36.315 131.465,36.835 130.854,37.238 L131.283,37.979 C131.816,37.602 132.57,37.199 133.415,37.199 C134.624,37.199 134.923,38.135 134.91,39.084 C131.894,39.422 130.555,40.176 130.555,41.71 C130.555,42.984 131.439,43.686 132.596,43.686 Z M132.882,42.828 C132.167,42.828 131.582,42.49 131.582,41.645 C131.582,40.683 132.427,40.085 134.91,39.799 L134.91,41.853 C134.195,42.49 133.597,42.828 132.882,42.828 Z M138.337,43.517 L139.455,43.517 L140.456,41.814 L140.944222,40.9598519 C141.026556,40.8187778 141.110333,40.6786667 141.197,40.54 L141.262,40.54 C141.522,40.956 141.782,41.385 142.029,41.814 L143.108,43.517 L144.265,43.517 L141.951,39.955 L144.083,36.497 L142.991,36.497 L142.068,38.096 L141.418,39.266 L141.418,39.266 L141.366,39.266 C141.119,38.876 140.872,38.486 140.651,38.096 L139.663,36.497 L138.519,36.497 L140.664,39.851 L138.337,43.517 Z M150.885,43.517 L156.163,43.517 L156.163,42.607 L151.964,42.607 L151.964,34.001 L150.885,34.001 L150.885,43.517 Z M160.448,43.686 C161.332,43.686 162.138,43.231 162.814,42.659 L162.853,42.659 L162.944,43.517 L163.815,43.517 L163.815,39.162 C163.815,37.472 163.139,36.315 161.436,36.315 C160.305,36.315 159.317,36.835 158.706,37.238 L159.135,37.979 C159.668,37.602 160.422,37.199 161.267,37.199 C162.476,37.199 162.775,38.135 162.762,39.084 C159.746,39.422 158.407,40.176 158.407,41.71 C158.407,42.984 159.291,43.686 160.448,43.686 Z M160.734,42.828 C160.019,42.828 159.434,42.49 159.434,41.645 C159.434,40.683 160.279,40.085 162.762,39.799 L162.762,41.853 C162.047,42.49 161.449,42.828 160.734,42.828 Z M168.321,43.517 L169.569,43.517 L170.596,39.617 C170.804,38.954 170.947,38.291 171.103,37.576 L171.168,37.576 L171.40525,38.604625 C171.44425,38.7711875 171.484062,38.9365312 171.526312,39.1024844 L172.728,43.517 L174.015,43.517 L175.939,36.497 L174.925,36.497 L173.846,40.67 C173.677,41.333 173.547,41.957 173.391,42.607 L173.339,42.607 L172.845,40.67 L172.845,40.67 L171.701,36.497 L170.635,36.497 L169.504,40.67 C169.322,41.333 169.179,41.957 169.01,42.607 L168.958,42.607 L168.677778,41.3224074 C168.630111,41.1076667 168.581,40.891 168.529,40.67 L167.424,36.497 L166.345,36.497 L168.321,43.517 Z M183.768,39.669 L184.262,38.122 C184.613,37.043 184.925,36.029 185.237,34.898 L185.289,34.898 C185.614,36.016 185.913,37.043 186.277,38.122 L186.771,39.669 L183.768,39.669 Z M187.993,43.517 L189.137,43.517 L185.874,34.001 L184.691,34.001 L181.441,43.517 L182.52,43.517 L183.495,40.514 L187.044,40.514 L187.993,43.517 Z M191.615,43.517 L192.694,43.517 L192.694,34.001 L191.615,34.001 L191.615,43.517 Z M200.445,43.517 L203.409,43.517 C205.541,43.517 207.01,42.594 207.01,40.735 C207.01,39.435 206.204,38.668 205.034,38.447 L205.034,38.395 C205.944,38.096 206.451,37.277 206.451,36.328 C206.451,34.677 205.138,34.001 203.201,34.001 L200.445,34.001 L200.445,43.517 Z M201.524,38.083 L201.524,34.859 L203.045,34.859 C204.592,34.859 205.385,35.288 205.385,36.458 C205.385,37.459 204.696,38.083 202.98,38.083 L201.524,38.083 Z M201.524,42.659 L201.524,38.915 L203.24,38.915 C204.969,38.915 205.957,39.474 205.957,40.696 C205.957,42.048 204.93,42.659 203.24,42.659 L201.524,42.659 Z M209.93,43.517 L210.983,43.517 L210.983,36.497 L209.93,36.497 L209.93,43.517 Z M210.463,34.989 C210.879,34.989 211.23,34.69 211.23,34.274 C211.23,33.819 210.879,33.546 210.463,33.546 C210.021,33.546 209.696,33.819 209.696,34.274 C209.696,34.69 210.021,34.989 210.463,34.989 Z M216.867,46.78 C218.999,46.78 220.364,45.649 220.364,44.375 C220.364,43.218 219.558,42.711 217.946,42.711 L216.542,42.711 C215.58,42.711 215.294,42.373 215.294,41.918 C215.294,41.515 215.502,41.255 215.762,41.034 C216.087,41.203 216.49,41.294 216.841,41.294 C218.258,41.294 219.376,40.332 219.376,38.837 C219.376,38.2 219.116,37.654 218.765,37.316 L220.247,37.316 L220.247,36.497 L217.816,36.497 C217.569,36.406 217.231,36.315 216.841,36.315 C215.424,36.315 214.241,37.303 214.241,38.824 C214.241,39.656 214.696,40.345 215.151,40.709 L215.151,40.761 C214.8,41.021 214.371,41.476 214.371,42.061 C214.371,42.62 214.644,42.997 215.008,43.218 L215.008,43.27 C214.358,43.699 213.968,44.284 213.968,44.882 C213.968,46.091 215.138,46.78 216.867,46.78 Z M216.841,40.566 C215.996,40.566 215.268,39.877 215.268,38.824 C215.268,37.745 215.97,37.108 216.841,37.108 C217.699,37.108 218.414,37.758 218.414,38.824 C218.414,39.877 217.686,40.566 216.841,40.566 Z M217.01,46.039 C215.684,46.039 214.904,45.532 214.904,44.752 C214.904,44.323 215.138,43.868 215.671,43.491 C215.996,43.569 216.347,43.608 216.568,43.608 L217.855,43.608 C218.817,43.608 219.324,43.842 219.324,44.531 C219.324,45.285 218.414,46.039 217.01,46.039 Z M226.958,43.517 L229.337,43.517 C232.223,43.517 233.744,41.71 233.744,38.72 C233.744,35.73 232.223,34.001 229.298,34.001 L226.958,34.001 L226.958,43.517 Z M228.037,42.633 L228.037,34.885 L229.207,34.885 C231.521,34.885 232.639,36.289 232.639,38.72 C232.639,41.151 231.521,42.633 229.207,42.633 L228.037,42.633 Z M238.432,43.686 C239.316,43.686 240.122,43.231 240.798,42.659 L240.837,42.659 L240.928,43.517 L241.799,43.517 L241.799,39.162 C241.799,37.472 241.123,36.315 239.42,36.315 C238.289,36.315 237.301,36.835 236.69,37.238 L237.119,37.979 C237.652,37.602 238.406,37.199 239.251,37.199 C240.46,37.199 240.759,38.135 240.746,39.084 C237.73,39.422 236.391,40.176 236.391,41.71 C236.391,42.984 237.275,43.686 238.432,43.686 Z M238.718,42.828 C238.003,42.828 237.418,42.49 237.418,41.645 C237.418,40.683 238.263,40.085 240.746,39.799 L240.746,41.853 C240.031,42.49 239.433,42.828 238.718,42.828 Z M247.15,43.686 C247.54,43.686 248.008,43.556 248.398,43.426 L248.19,42.633 C247.956,42.724 247.631,42.815 247.371,42.815 C246.526,42.815 246.266,42.295 246.266,41.437 L246.266,37.368 L248.203,37.368 L248.203,36.497 L246.266,36.497 L246.266,34.508 L245.369,34.508 L245.252,36.497 L244.147,36.562 L244.147,37.368 L245.213,37.368 L245.213,41.398 C245.213,42.776 245.681,43.686 247.15,43.686 Z M252.189,43.686 C253.073,43.686 253.879,43.231 254.555,42.659 L254.594,42.659 L254.685,43.517 L255.556,43.517 L255.556,39.162 C255.556,37.472 254.88,36.315 253.177,36.315 C252.046,36.315 251.058,36.835 250.447,37.238 L250.876,37.979 C251.409,37.602 252.163,37.199 253.008,37.199 C254.217,37.199 254.516,38.135 254.503,39.084 C251.487,39.422 250.148,40.176 250.148,41.71 C250.148,42.984 251.032,43.686 252.189,43.686 Z M252.475,42.828 C251.76,42.828 251.175,42.49 251.175,41.645 C251.175,40.683 252.02,40.085 254.503,39.799 L254.503,41.853 C253.788,42.49 253.19,42.828 252.475,42.828 Z M263.06,43.517 L264.139,43.517 L264.139,39.669 L265.751,39.669 C267.844,39.669 269.235,38.733 269.235,36.757 C269.235,34.716 267.844,34.001 265.699,34.001 L263.06,34.001 L263.06,43.517 Z M264.139,38.785 L264.139,34.872 L265.543,34.872 C267.285,34.872 268.169,35.327 268.169,36.757 C268.169,38.174 267.337,38.785 265.595,38.785 L264.139,38.785 Z M273.351,43.686 C273.65,43.686 273.819,43.647 273.988,43.595 L273.832,42.776 C273.702,42.802 273.65,42.802 273.585,42.802 C273.403,42.802 273.26,42.659 273.26,42.308 L273.26,33.169 L272.207,33.169 L272.207,42.23 C272.207,43.166 272.545,43.686 273.351,43.686 Z M278.52,43.686 C279.404,43.686 280.21,43.231 280.886,42.659 L280.925,42.659 L281.016,43.517 L281.887,43.517 L281.887,39.162 C281.887,37.472 281.211,36.315 279.508,36.315 C278.377,36.315 277.389,36.835 276.778,37.238 L277.207,37.979 C277.74,37.602 278.494,37.199 279.339,37.199 C280.548,37.199 280.847,38.135 280.834,39.084 C277.818,39.422 276.479,40.176 276.479,41.71 C276.479,42.984 277.363,43.686 278.52,43.686 Z M278.806,42.828 C278.091,42.828 277.506,42.49 277.506,41.645 C277.506,40.683 278.351,40.085 280.834,39.799 L280.834,41.853 C280.119,42.49 279.521,42.828 278.806,42.828 Z M287.238,43.686 C287.628,43.686 288.096,43.556 288.486,43.426 L288.278,42.633 C288.044,42.724 287.719,42.815 287.459,42.815 C286.614,42.815 286.354,42.295 286.354,41.437 L286.354,37.368 L288.291,37.368 L288.291,36.497 L286.354,36.497 L286.354,34.508 L285.457,34.508 L285.34,36.497 L284.235,36.562 L284.235,37.368 L285.301,37.368 L285.301,41.398 C285.301,42.776 285.769,43.686 287.238,43.686 Z M294.279,33.234 C293.954,33.091 293.551,33 293.148,33 C291.809,33 291.159,33.858 291.159,35.275 L291.159,36.497 L290.197,36.562 L290.197,37.368 L291.159,37.368 L291.159,43.517 L292.225,43.517 L292.225,37.368 L293.733,37.368 L293.733,36.497 L292.225,36.497 L292.225,35.288 C292.225,34.352 292.55,33.858 293.239,33.858 C293.486,33.858 293.772,33.923 294.045,34.053 L294.279,33.234 Z M298.759,43.686 C300.475,43.686 301.996,42.334 301.996,40.02 C301.996,37.667 300.475,36.315 298.759,36.315 C297.043,36.315 295.535,37.667 295.535,40.02 C295.535,42.334 297.043,43.686 298.759,43.686 Z M298.759,42.802 C297.498,42.802 296.627,41.684 296.627,40.02 C296.627,38.343 297.498,37.212 298.759,37.212 C300.02,37.212 300.904,38.343 300.904,40.02 C300.904,41.684 300.02,42.802 298.759,42.802 Z M305.007,43.517 L306.06,43.517 L306.06,38.941 C306.541,37.719 307.269,37.277 307.867,37.277 C308.14,37.277 308.296,37.316 308.53,37.394 L308.738,36.471 C308.504,36.354 308.296,36.315 307.997,36.315 C307.204,36.315 306.489,36.9 306.008,37.784 L305.969,37.784 L305.865,36.497 L305.007,36.497 L305.007,43.517 Z M311.034,43.517 L311.034,36.497 L311.892,36.497 L311.996,37.537 L312.035,37.537 C312.646,36.861 313.4,36.315 314.219,36.315 C315.311,36.315 315.883,36.848 316.156,37.68 C316.91,36.874 317.651,36.315 318.496,36.315 C319.926,36.315 320.628,37.264 320.628,39.058 L320.628,43.517 L319.562,43.517 L319.562,39.188 C319.562,37.836 319.133,37.238 318.197,37.238 C317.625,37.238 317.027,37.615 316.351,38.382 L316.351,43.517 L315.298,43.517 L315.298,39.188 C315.298,37.836 314.869,37.238 313.92,37.238 C313.374,37.238 312.75,37.615 312.087,38.382 L312.087,43.517 L311.034,43.517 Z" id="JinXinFiscalandTaxLawAIBigDataPlatform" fill-opacity="0.677283654"></path>
                </g>
            </g>
        </g>
    </g>
</svg>