<?xml version="1.0" encoding="UTF-8"?>
<svg width="18px" height="18px" viewBox="0 0 18 18" version="1.1" xmlns="http://www.w3.org/2000/svg" xmlns:xlink="http://www.w3.org/1999/xlink">
    <!-- Generator: Sketch 59.1 (86144) - https://sketch.com -->
    <title>编组</title>
    <desc>Created with Sketch.</desc>
    <g id="电脑端1.0" stroke="none" stroke-width="1" fill="none" fill-rule="evenodd">
        <g id="风控中心-1" transform="translate(-419.000000, -248.000000)" fill="#BEBEBE" fill-rule="nonzero" stroke="#BEBEBE" stroke-width="0.3">
            <g id="编组-8" transform="translate(400.000000, 192.000000)">
                <g id="编组-5" transform="translate(20.000000, 54.000000)">
                    <g id="编组" transform="translate(0.000000, 3.000000)">
                        <path d="M15.84725,15.0509943 L11.7193214,11.0115234 C12.8002143,9.84362571 13.4642143,8.29928977 13.4642143,6.59953835 C13.4642143,2.9640625 10.4525357,0.016796875 6.73728571,0.016796875 C3.02216071,0.016796875 0.0103571429,2.9640625 0.0103571429,6.59953835 C0.0103571429,10.2350142 3.02216071,13.1820312 6.73728571,13.1820312 C8.34246429,13.1820312 9.81492857,12.6299893 10.9711607,11.7119673 L15.1154464,15.7672408 C15.3176964,15.964968 15.6452679,15.964968 15.84725,15.7672408 C15.9442432,15.6730433 15.9989273,15.5439295 15.9989273,15.4091175 C15.9989273,15.2743056 15.9442432,15.1451918 15.84725,15.0509943 L15.84725,15.0509943 Z M6.73726786,12.1694425 C3.59366071,12.1694425 1.04519643,9.67572798 1.04519643,6.59953835 C1.04519643,3.52334872 3.59367857,1.0295277 6.73726786,1.0295277 C9.88085714,1.0295277 12.4293393,3.52336648 12.4293393,6.59953835 C12.4293393,9.67571023 9.880875,12.1694425 6.73726786,12.1694425 Z" id="形状"></path>
                    </g>
                </g>
            </g>
        </g>
    </g>
</svg>