<?xml version="1.0" encoding="UTF-8"?>
<svg width="14px" height="16px" viewBox="0 0 14 16" version="1.1" xmlns="http://www.w3.org/2000/svg" xmlns:xlink="http://www.w3.org/1999/xlink">
    <!-- Generator: Sketch 59.1 (86144) - https://sketch.com -->
    <title>编组</title>
    <desc>Created with Sketch.</desc>
    <g id="电脑端1.0" stroke="none" stroke-width="1" fill="none" fill-rule="evenodd">
        <g id="风控中心-输入文字（合同可视化中心）" transform="translate(-421.000000, -302.000000)" fill="#147CEC" fill-rule="nonzero">
            <g id="编组-8" transform="translate(400.000000, 192.000000)">
                <g id="编组-47" transform="translate(21.000000, 107.000000)">
                    <g id="编组" transform="translate(0.000000, 3.000000)">
                        <path d="M12.2915733,0.00551035503 L1.64830644,0.00551035503 C0.747707648,0.00551035503 0.0108655428,0.762906805 0.0108655428,1.68860947 L0.0108655428,14.3118898 C0.0108655428,15.2375925 0.747707648,15.9949889 1.64830644,15.9949889 L12.2915553,15.9949889 C13.1921361,15.9949889 13.9289782,15.2375925 13.9289782,14.3118898 L13.9289782,1.68860947 C13.9289782,0.762906805 13.1921361,0.00551035503 12.2915553,0.00551035503 L12.2915733,0.00551035503 Z M2.83543894,4.08703772 L7.09275288,4.08703772 C7.33836092,4.08703772 7.50209961,4.25534393 7.50209961,4.50780325 C7.50209961,4.76026257 7.33836092,4.92858728 7.09275288,4.92858728 L2.83543894,4.92858728 C2.58981291,4.92858728 2.42607422,4.76028107 2.42607422,4.50780325 C2.42607422,4.25532544 2.58981291,4.08703772 2.83543894,4.08703772 L2.83543894,4.08703772 Z M10.9816278,11.4926775 L2.83543894,11.4926775 C2.58981291,11.4926775 2.42607422,11.3243713 2.42607422,11.071912 C2.42607422,10.8194527 2.58981291,10.651128 2.83543894,10.651128 L10.9816278,10.651128 C11.2272538,10.651128 11.3909925,10.8194527 11.3909925,11.071912 C11.3909925,11.3243713 11.2272538,11.4926775 10.9816278,11.4926775 Z M11.1044408,8.2106324 L2.83543894,8.2106324 C2.58981291,8.2106324 2.42607422,8.04232618 2.42607422,7.78986686 C2.42607422,7.53740754 2.58981291,7.36908284 2.83543894,7.36908284 L11.1453845,7.36908284 C11.3909925,7.36908284 11.5547312,7.53738905 11.5547312,7.78986686 C11.5547312,8.04234467 11.3500488,8.2106324 11.1044408,8.2106324 L11.1044408,8.2106324 Z" id="形状"></path>
                    </g>
                </g>
            </g>
        </g>
    </g>
</svg>