<?xml version="1.0" encoding="UTF-8"?>
<svg width="17px" height="14px" viewBox="0 0 17 14" version="1.1" xmlns="http://www.w3.org/2000/svg" xmlns:xlink="http://www.w3.org/1999/xlink">
    <!-- Generator: Sketch 59.1 (86144) - https://sketch.com -->
    <title>路径</title>
    <desc>Created with Sketch.</desc>
    <g id="电脑端1.0" stroke="none" stroke-width="1" fill="none" fill-rule="evenodd" opacity="0.501139323">
        <g id="风控中心-输入文字（合同可视化中心）" transform="translate(-1183.000000, -303.000000)" fill="#147CEC" fill-rule="nonzero">
            <g id="编组-8" transform="translate(400.000000, 192.000000)">
                <g id="编组" transform="translate(783.000000, 111.000000)">
                    <path d="M0.977133621,6.27411458 L14.3074784,6.27411458 L9.61782328,1.58022569 C9.23874282,1.21855903 9.05506466,0.61578125 9.42242098,0.238559028 C9.78586925,-0.138663194 10.3173635,-0.0200520833 10.696444,0.343559028 L16.6816164,6.32272569 C16.8684954,6.50191784 16.9742716,6.74892246 16.9747198,7.00717014 C16.9747198,7.26578125 16.8672486,7.44661458 16.6816164,7.62550347 L10.5244899,13.7680035 C10.3408118,13.9430035 9.8327658,14.1452257 9.42046695,13.7680035 C9.02966236,13.4082812 9.23678879,12.8268924 9.61586925,12.4652257 L14.3055244,7.77522569 C14.3074784,7.77328125 9.8581681,7.77133681 0.955639368,7.77133681 C0.447593391,7.77133681 0.0138002874,7.59244792 0.0138002874,7.02272569 C0.0138002874,6.45300347 0.424145115,6.27411458 0.977133621,6.27411458 Z" id="路径"></path>
                </g>
            </g>
        </g>
    </g>
</svg>